/* XPM */
static char *result[] = {
/* columns rows colors chars-per-pixel */
"40 120 4 1 ",
"  c #007F7F",
". c #006868",
"X c #965F41",
"o c #87553B",
/* pixels */
"                                        ",
"                                        ",
"                                        ",
"                                        ",
"                                        ",
"                                        ",
"                                        ",
"                                        ",
"                                        ",
"                                        ",
"..............................          ",
"..............................          ",
"..............................          ",
"..............................          ",
"..............................          ",
"..............................          ",
"..............................          ",
"..............................          ",
"..............................          ",
"..............................          ",
"          ....................          ",
"          ....................          ",
"          ....................          ",
"          ....................          ",
"          ....................          ",
"          ....................          ",
"          ....................          ",
"          ....................          ",
"          ....................          ",
"          ....................          ",
"          ....................          ",
"          ....................          ",
"          ....................          ",
"          ....................          ",
"          ....................          ",
"          ....................          ",
"          ....................          ",
"          ....................          ",
"          ....................          ",
"          ....................          ",
"XXXXXXXXXXXXXXXXXXXXXXXXXXXXXXoooooooooo",
"XXXXXXXXXXXXXXXXXXXXXXXXXXXXXXoooooooooo",
"XXXXXXXXXXXXXXXXXXXXXXXXXXXXXXoooooooooo",
"XXXXXXXXXXXXXXXXXXXXXXXXXXXXXXoooooooooo",
"XXXXXXXXXXXXXXXXXXXXXXXXXXXXXXoooooooooo",
"XXXXXXXXXXXXXXXXXXXXXXXXXXXXXXoooooooooo",
"XXXXXXXXXXXXXXXXXXXXXXXXXXXXXXoooooooooo",
"XXXXXXXXXXXXXXXXXXXXXXXXXXXXXXoooooooooo",
"XXXXXXXXXXXXXXXXXXXXXXXXXXXXXXoooooooooo",
"XXXXXXXXXXXXXXXXXXXXXXXXXXXXXXoooooooooo",
"XXXXXXXXXXXXXXXXXXXXXXXXXXXXXXoooooooooo",
"XXXXXXXXXXXXXXXXXXXXXXXXXXXXXXoooooooooo",
"XXXXXXXXXXXXXXXXXXXXXXXXXXXXXXoooooooooo",
"XXXXXXXXXXXXXXXXXXXXXXXXXXXXXXoooooooooo",
"XXXXXXXXXXXXXXXXXXXXXXXXXXXXXXoooooooooo",
"XXXXXXXXXXXXXXXXXXXXXXXXXXXXXXoooooooooo",
"XXXXXXXXXXXXXXXXXXXXXXXXXXXXXXoooooooooo",
"XXXXXXXXXXXXXXXXXXXXXXXXXXXXXXoooooooooo",
"XXXXXXXXXXXXXXXXXXXXXXXXXXXXXXoooooooooo",
"XXXXXXXXXXXXXXXXXXXXXXXXXXXXXXoooooooooo",
"ooooooooooXXXXXXXXXXXXXXXXXXXXoooooooooo",
"ooooooooooXXXXXXXXXXXXXXXXXXXXoooooooooo",
"ooooooooooXXXXXXXXXXXXXXXXXXXXoooooooooo",
"ooooooooooXXXXXXXXXXXXXXXXXXXXoooooooooo",
"ooooooooooXXXXXXXXXXXXXXXXXXXXoooooooooo",
"ooooooooooXXXXXXXXXXXXXXXXXXXXoooooooooo",
"ooooooooooXXXXXXXXXXXXXXXXXXXXoooooooooo",
"ooooooooooXXXXXXXXXXXXXXXXXXXXoooooooooo",
"ooooooooooXXXXXXXXXXXXXXXXXXXXoooooooooo",
"ooooooooooXXXXXXXXXXXXXXXXXXXXoooooooooo",
"ooooooooooXXXXXXXXXXXXXXXXXXXXXXXXXXXXXX",
"ooooooooooXXXXXXXXXXXXXXXXXXXXXXXXXXXXXX",
"ooooooooooXXXXXXXXXXXXXXXXXXXXXXXXXXXXXX",
"ooooooooooXXXXXXXXXXXXXXXXXXXXXXXXXXXXXX",
"ooooooooooXXXXXXXXXXXXXXXXXXXXXXXXXXXXXX",
"ooooooooooXXXXXXXXXXXXXXXXXXXXXXXXXXXXXX",
"ooooooooooXXXXXXXXXXXXXXXXXXXXXXXXXXXXXX",
"ooooooooooXXXXXXXXXXXXXXXXXXXXXXXXXXXXXX",
"ooooooooooXXXXXXXXXXXXXXXXXXXXXXXXXXXXXX",
"ooooooooooXXXXXXXXXXXXXXXXXXXXXXXXXXXXXX",
"ooooooooooXXXXXXXXXXooooooooooXXXXXXXXXX",
"ooooooooooXXXXXXXXXXooooooooooXXXXXXXXXX",
"ooooooooooXXXXXXXXXXooooooooooXXXXXXXXXX",
"ooooooooooXXXXXXXXXXooooooooooXXXXXXXXXX",
"ooooooooooXXXXXXXXXXooooooooooXXXXXXXXXX",
"ooooooooooXXXXXXXXXXooooooooooXXXXXXXXXX",
"ooooooooooXXXXXXXXXXooooooooooXXXXXXXXXX",
"ooooooooooXXXXXXXXXXooooooooooXXXXXXXXXX",
"ooooooooooXXXXXXXXXXooooooooooXXXXXXXXXX",
"ooooooooooXXXXXXXXXXooooooooooXXXXXXXXXX",
"XXXXXXXXXXXXXXXXXXXXooooooooooXXXXXXXXXX",
"XXXXXXXXXXXXXXXXXXXXooooooooooXXXXXXXXXX",
"XXXXXXXXXXXXXXXXXXXXooooooooooXXXXXXXXXX",
"XXXXXXXXXXXXXXXXXXXXooooooooooXXXXXXXXXX",
"XXXXXXXXXXXXXXXXXXXXooooooooooXXXXXXXXXX",
"XXXXXXXXXXXXXXXXXXXXooooooooooXXXXXXXXXX",
"XXXXXXXXXXXXXXXXXXXXooooooooooXXXXXXXXXX",
"XXXXXXXXXXXXXXXXXXXXooooooooooXXXXXXXXXX",
"XXXXXXXXXXXXXXXXXXXXooooooooooXXXXXXXXXX",
"XXXXXXXXXXXXXXXXXXXXooooooooooXXXXXXXXXX",
"XXXXXXXXXXXXXXXXXXXXooooooooooXXXXXXXXXX",
"XXXXXXXXXXXXXXXXXXXXooooooooooXXXXXXXXXX",
"XXXXXXXXXXXXXXXXXXXXooooooooooXXXXXXXXXX",
"XXXXXXXXXXXXXXXXXXXXooooooooooXXXXXXXXXX",
"XXXXXXXXXXXXXXXXXXXXooooooooooXXXXXXXXXX",
"XXXXXXXXXXXXXXXXXXXXooooooooooXXXXXXXXXX",
"XXXXXXXXXXXXXXXXXXXXooooooooooXXXXXXXXXX",
"XXXXXXXXXXXXXXXXXXXXooooooooooXXXXXXXXXX",
"XXXXXXXXXXXXXXXXXXXXooooooooooXXXXXXXXXX",
"XXXXXXXXXXXXXXXXXXXXooooooooooXXXXXXXXXX",
"XXXXXXXXXXXXXXXXXXXXXXXXXXXXXXXXXXXXXXXX",
"XXXXXXXXXXXXXXXXXXXXXXXXXXXXXXXXXXXXXXXX",
"XXXXXXXXXXXXXXXXXXXXXXXXXXXXXXXXXXXXXXXX",
"XXXXXXXXXXXXXXXXXXXXXXXXXXXXXXXXXXXXXXXX",
"XXXXXXXXXXXXXXXXXXXXXXXXXXXXXXXXXXXXXXXX",
"XXXXXXXXXXXXXXXXXXXXXXXXXXXXXXXXXXXXXXXX",
"XXXXXXXXXXXXXXXXXXXXXXXXXXXXXXXXXXXXXXXX",
"XXXXXXXXXXXXXXXXXXXXXXXXXXXXXXXXXXXXXXXX",
"XXXXXXXXXXXXXXXXXXXXXXXXXXXXXXXXXXXXXXXX",
"XXXXXXXXXXXXXXXXXXXXXXXXXXXXXXXXXXXXXXXX"
};
