/* XPM */
static char *result[] = {
/* columns rows colors chars-per-pixel */
"40 40 2 1 ",
"  c #6A4030",
". c #513125",
/* pixels */
"          ..........          ..........",
"          ..........          ..........",
"          ..........          ..........",
"          ..........          ..........",
"          ..........          ..........",
"          ..........          ..........",
"          ..........          ..........",
"          ..........          ..........",
"          ..........          ..........",
"          ..........          ..........",
"          ..........          ..........",
"          ..........          ..........",
"          ..........          ..........",
"          ..........          ..........",
"          ..........          ..........",
"          ..........          ..........",
"          ..........          ..........",
"          ..........          ..........",
"          ..........          ..........",
"          ..........          ..........",
"..........          ..........          ",
"..........          ..........          ",
"..........          ..........          ",
"..........          ..........          ",
"..........          ..........          ",
"..........          ..........          ",
"..........          ..........          ",
"..........          ..........          ",
"..........          ..........          ",
"..........          ..........          ",
"..........          ..........          ",
"..........          ..........          ",
"..........          ..........          ",
"..........          ..........          ",
"..........          ..........          ",
"..........          ..........          ",
"..........          ..........          ",
"..........          ..........          ",
"..........          ..........          ",
"..........          ..........          "
};
