/* XPM */
static char *result[] = {
/* columns rows colors chars-per-pixel */
"40 120 4 1 ",
"  c #007F7F",
". c #006868",
"X c #87553B",
"o c #965F41",
/* pixels */
"                                        ",
"                                        ",
"                                        ",
"                                        ",
"                                        ",
"                                        ",
"                                        ",
"                                        ",
"                                        ",
"                                        ",
"          ....................          ",
"          ....................          ",
"          ....................          ",
"          ....................          ",
"          ....................          ",
"          ....................          ",
"          ....................          ",
"          ....................          ",
"          ....................          ",
"          ....................          ",
"          ....................          ",
"          ....................          ",
"          ....................          ",
"          ....................          ",
"          ....................          ",
"          ....................          ",
"          ....................          ",
"          ....................          ",
"          ....................          ",
"          ....................          ",
"          ....................          ",
"          ....................          ",
"          ....................          ",
"          ....................          ",
"          ....................          ",
"          ....................          ",
"          ....................          ",
"          ....................          ",
"          ....................          ",
"          ....................          ",
"XXXXXXXXXXoooooooooooooooooooooooooooooo",
"XXXXXXXXXXoooooooooooooooooooooooooooooo",
"XXXXXXXXXXoooooooooooooooooooooooooooooo",
"XXXXXXXXXXoooooooooooooooooooooooooooooo",
"XXXXXXXXXXoooooooooooooooooooooooooooooo",
"XXXXXXXXXXoooooooooooooooooooooooooooooo",
"XXXXXXXXXXoooooooooooooooooooooooooooooo",
"XXXXXXXXXXoooooooooooooooooooooooooooooo",
"XXXXXXXXXXoooooooooooooooooooooooooooooo",
"XXXXXXXXXXoooooooooooooooooooooooooooooo",
"ooooooooooXXXXXXXXXXoooooooooooooooooooo",
"ooooooooooXXXXXXXXXXoooooooooooooooooooo",
"ooooooooooXXXXXXXXXXoooooooooooooooooooo",
"ooooooooooXXXXXXXXXXoooooooooooooooooooo",
"ooooooooooXXXXXXXXXXoooooooooooooooooooo",
"ooooooooooXXXXXXXXXXoooooooooooooooooooo",
"ooooooooooXXXXXXXXXXoooooooooooooooooooo",
"ooooooooooXXXXXXXXXXoooooooooooooooooooo",
"ooooooooooXXXXXXXXXXoooooooooooooooooooo",
"ooooooooooXXXXXXXXXXoooooooooooooooooooo",
"ooooooooooXXXXXXXXXXoooooooooooooooooooo",
"ooooooooooXXXXXXXXXXoooooooooooooooooooo",
"ooooooooooXXXXXXXXXXoooooooooooooooooooo",
"ooooooooooXXXXXXXXXXoooooooooooooooooooo",
"ooooooooooXXXXXXXXXXoooooooooooooooooooo",
"ooooooooooXXXXXXXXXXoooooooooooooooooooo",
"ooooooooooXXXXXXXXXXoooooooooooooooooooo",
"ooooooooooXXXXXXXXXXoooooooooooooooooooo",
"ooooooooooXXXXXXXXXXoooooooooooooooooooo",
"ooooooooooXXXXXXXXXXoooooooooooooooooooo",
"ooooooooooXXXXXXXXXXooooooooooXXXXXXXXXX",
"ooooooooooXXXXXXXXXXooooooooooXXXXXXXXXX",
"ooooooooooXXXXXXXXXXooooooooooXXXXXXXXXX",
"ooooooooooXXXXXXXXXXooooooooooXXXXXXXXXX",
"ooooooooooXXXXXXXXXXooooooooooXXXXXXXXXX",
"ooooooooooXXXXXXXXXXooooooooooXXXXXXXXXX",
"ooooooooooXXXXXXXXXXooooooooooXXXXXXXXXX",
"ooooooooooXXXXXXXXXXooooooooooXXXXXXXXXX",
"ooooooooooXXXXXXXXXXooooooooooXXXXXXXXXX",
"ooooooooooXXXXXXXXXXooooooooooXXXXXXXXXX",
"ooooooooooooooooooooooooooooooXXXXXXXXXX",
"ooooooooooooooooooooooooooooooXXXXXXXXXX",
"ooooooooooooooooooooooooooooooXXXXXXXXXX",
"ooooooooooooooooooooooooooooooXXXXXXXXXX",
"ooooooooooooooooooooooooooooooXXXXXXXXXX",
"ooooooooooooooooooooooooooooooXXXXXXXXXX",
"ooooooooooooooooooooooooooooooXXXXXXXXXX",
"ooooooooooooooooooooooooooooooXXXXXXXXXX",
"ooooooooooooooooooooooooooooooXXXXXXXXXX",
"ooooooooooooooooooooooooooooooXXXXXXXXXX",
"oooooooooooooooooooooooooooooooooooooooo",
"oooooooooooooooooooooooooooooooooooooooo",
"oooooooooooooooooooooooooooooooooooooooo",
"oooooooooooooooooooooooooooooooooooooooo",
"oooooooooooooooooooooooooooooooooooooooo",
"oooooooooooooooooooooooooooooooooooooooo",
"oooooooooooooooooooooooooooooooooooooooo",
"oooooooooooooooooooooooooooooooooooooooo",
"oooooooooooooooooooooooooooooooooooooooo",
"oooooooooooooooooooooooooooooooooooooooo",
"XXXXXXXXXXooooooooooXXXXXXXXXXoooooooooo",
"XXXXXXXXXXooooooooooXXXXXXXXXXoooooooooo",
"XXXXXXXXXXooooooooooXXXXXXXXXXoooooooooo",
"XXXXXXXXXXooooooooooXXXXXXXXXXoooooooooo",
"XXXXXXXXXXooooooooooXXXXXXXXXXoooooooooo",
"XXXXXXXXXXooooooooooXXXXXXXXXXoooooooooo",
"XXXXXXXXXXooooooooooXXXXXXXXXXoooooooooo",
"XXXXXXXXXXooooooooooXXXXXXXXXXoooooooooo",
"XXXXXXXXXXooooooooooXXXXXXXXXXoooooooooo",
"XXXXXXXXXXooooooooooXXXXXXXXXXoooooooooo",
"XXXXXXXXXXoooooooooooooooooooooooooooooo",
"XXXXXXXXXXoooooooooooooooooooooooooooooo",
"XXXXXXXXXXoooooooooooooooooooooooooooooo",
"XXXXXXXXXXoooooooooooooooooooooooooooooo",
"XXXXXXXXXXoooooooooooooooooooooooooooooo",
"XXXXXXXXXXoooooooooooooooooooooooooooooo",
"XXXXXXXXXXoooooooooooooooooooooooooooooo",
"XXXXXXXXXXoooooooooooooooooooooooooooooo",
"XXXXXXXXXXoooooooooooooooooooooooooooooo",
"XXXXXXXXXXoooooooooooooooooooooooooooooo"
};
