/* XPM */
static char *result[] = {
/* columns rows colors chars-per-pixel */
"40 40 2 1 ",
"  c #00A8A8",
". c #00CCCC",
/* pixels */
"          ....................          ",
"          ....................          ",
"          ....................          ",
"          ....................          ",
"          ....................          ",
"          ....................          ",
"          ....................          ",
"          ....................          ",
"          ....................          ",
"          ....................          ",
"........................................",
"........................................",
"........................................",
"........................................",
"........................................",
"........................................",
"........................................",
"........................................",
"........................................",
"........................................",
"..............................          ",
"..............................          ",
"..............................          ",
"..............................          ",
"..............................          ",
"..............................          ",
"..............................          ",
"..............................          ",
"..............................          ",
"..............................          ",
"          ....................          ",
"          ....................          ",
"          ....................          ",
"          ....................          ",
"          ....................          ",
"          ....................          ",
"          ....................          ",
"          ....................          ",
"          ....................          ",
"          ....................          "
};
