/* XPM */
static char *_996b8a1ce234635da76b6e7e082f1d8FUubRqH759rjXNXX[] = {
/* columns rows colors chars-per-pixel */
"80 80 35 1 ",
"  c #2D2010",
". c #322310",
"X c #291C0C",
"o c #271B0B",
"O c #261A0A",
"+ c #281B0A",
"@ c #332411",
"# c #2B1E0D",
"$ c #2C1E0E",
"% c #24180A",
"& c #281B0B",
"* c #2B1E0E",
"= c #26180B",
"- c #2F2211",
"; c #2D1D0E",
": c #281A0D",
"> c #3A2814",
", c #9C6345",
"< c #87583A",
"1 c #231709",
"2 c #261A0C",
"3 c #885A39",
"4 c #965F41",
"5 c #845231",
"6 c #2C1E11",
"7 c #75472F",
"8 c #865334",
"9 c #9A6344",
"0 c #9D6A4F",
"q c #62432F",
"w c #74482F",
"e c #8A593B",
"r c #9F6849",
"t c #9C6748",
"y c #9A644A",
/* pixels */
"                    ..........XXXXXXXXXXooooooooooOOOOOOOOOO++++++++++++++++++++",
"                    ..........XXXXXXXXXXooooooooooOOOOOOOOOO++++++++++++++++++++",
"                    ..........XXXXXXXXXXooooooooooOOOOOOOOOO++++++++++++++++++++",
"                    ..........XXXXXXXXXXooooooooooOOOOOOOOOO++++++++++++++++++++",
"                    ..........XXXXXXXXXXooooooooooOOOOOOOOOO++++++++++++++++++++",
"                    ..........XXXXXXXXXXooooooooooOOOOOOOOOO++++++++++++++++++++",
"                    ..........XXXXXXXXXXooooooooooOOOOOOOOOO++++++++++++++++++++",
"                    ..........XXXXXXXXXXooooooooooOOOOOOOOOO++++++++++++++++++++",
"                    ..........XXXXXXXXXXooooooooooOOOOOOOOOO++++++++++++++++++++",
"                    ..........XXXXXXXXXXooooooooooOOOOOOOOOO++++++++++++++++++++",
"@@@@@@@@@@##########XXXXXXXXXX$$$$$$$$$$OOOOOOOOOOOOOOOOOOOO++++++++++++++++++++",
"@@@@@@@@@@##########XXXXXXXXXX$$$$$$$$$$OOOOOOOOOOOOOOOOOOOO++++++++++++++++++++",
"@@@@@@@@@@##########XXXXXXXXXX$$$$$$$$$$OOOOOOOOOOOOOOOOOOOO++++++++++++++++++++",
"@@@@@@@@@@##########XXXXXXXXXX$$$$$$$$$$OOOOOOOOOOOOOOOOOOOO++++++++++++++++++++",
"@@@@@@@@@@##########XXXXXXXXXX$$$$$$$$$$OOOOOOOOOOOOOOOOOOOO++++++++++++++++++++",
"@@@@@@@@@@##########XXXXXXXXXX$$$$$$$$$$OOOOOOOOOOOOOOOOOOOO++++++++++++++++++++",
"@@@@@@@@@@##########XXXXXXXXXX$$$$$$$$$$OOOOOOOOOOOOOOOOOOOO++++++++++++++++++++",
"@@@@@@@@@@##########XXXXXXXXXX$$$$$$$$$$OOOOOOOOOOOOOOOOOOOO++++++++++++++++++++",
"@@@@@@@@@@##########XXXXXXXXXX$$$$$$$$$$OOOOOOOOOOOOOOOOOOOO++++++++++++++++++++",
"@@@@@@@@@@##########XXXXXXXXXX$$$$$$$$$$OOOOOOOOOOOOOOOOOOOO++++++++++++++++++++",
"XXXXXXXXXX%%%%%%%%%%&&&&&&&&&&**********XXXXXXXXXXOOOOOOOOOO==========$$$$$$$$$$",
"XXXXXXXXXX%%%%%%%%%%&&&&&&&&&&**********XXXXXXXXXXOOOOOOOOOO==========$$$$$$$$$$",
"XXXXXXXXXX%%%%%%%%%%&&&&&&&&&&**********XXXXXXXXXXOOOOOOOOOO==========$$$$$$$$$$",
"XXXXXXXXXX%%%%%%%%%%&&&&&&&&&&**********XXXXXXXXXXOOOOOOOOOO==========$$$$$$$$$$",
"XXXXXXXXXX%%%%%%%%%%&&&&&&&&&&**********XXXXXXXXXXOOOOOOOOOO==========$$$$$$$$$$",
"XXXXXXXXXX%%%%%%%%%%&&&&&&&&&&**********XXXXXXXXXXOOOOOOOOOO==========$$$$$$$$$$",
"XXXXXXXXXX%%%%%%%%%%&&&&&&&&&&**********XXXXXXXXXXOOOOOOOOOO==========$$$$$$$$$$",
"XXXXXXXXXX%%%%%%%%%%&&&&&&&&&&**********XXXXXXXXXXOOOOOOOOOO==========$$$$$$$$$$",
"XXXXXXXXXX%%%%%%%%%%&&&&&&&&&&**********XXXXXXXXXXOOOOOOOOOO==========$$$$$$$$$$",
"XXXXXXXXXX%%%%%%%%%%&&&&&&&&&&**********XXXXXXXXXXOOOOOOOOOO==========$$$$$$$$$$",
"----------$$$$$$$$$$oooooooooo++++++++++$$$$$$$$$$;;;;;;;;;;::::::::::++++++++++",
"----------$$$$$$$$$$oooooooooo++++++++++$$$$$$$$$$;;;;;;;;;;::::::::::++++++++++",
"----------$$$$$$$$$$oooooooooo++++++++++$$$$$$$$$$;;;;;;;;;;::::::::::++++++++++",
"----------$$$$$$$$$$oooooooooo++++++++++$$$$$$$$$$;;;;;;;;;;::::::::::++++++++++",
"----------$$$$$$$$$$oooooooooo++++++++++$$$$$$$$$$;;;;;;;;;;::::::::::++++++++++",
"----------$$$$$$$$$$oooooooooo++++++++++$$$$$$$$$$;;;;;;;;;;::::::::::++++++++++",
"----------$$$$$$$$$$oooooooooo++++++++++$$$$$$$$$$;;;;;;;;;;::::::::::++++++++++",
"----------$$$$$$$$$$oooooooooo++++++++++$$$$$$$$$$;;;;;;;;;;::::::::::++++++++++",
"----------$$$$$$$$$$oooooooooo++++++++++$$$$$$$$$$;;;;;;;;;;::::::::::++++++++++",
"----------$$$$$$$$$$oooooooooo++++++++++$$$$$$$$$$;;;;;;;;;;::::::::::++++++++++",
">>>>>>>>>>,,,,,,,,,,<<<<<<<<<<11111111112222222222++++++++++++++++++++++++++++++",
">>>>>>>>>>,,,,,,,,,,<<<<<<<<<<11111111112222222222++++++++++++++++++++++++++++++",
">>>>>>>>>>,,,,,,,,,,<<<<<<<<<<11111111112222222222++++++++++++++++++++++++++++++",
">>>>>>>>>>,,,,,,,,,,<<<<<<<<<<11111111112222222222++++++++++++++++++++++++++++++",
">>>>>>>>>>,,,,,,,,,,<<<<<<<<<<11111111112222222222++++++++++++++++++++++++++++++",
">>>>>>>>>>,,,,,,,,,,<<<<<<<<<<11111111112222222222++++++++++++++++++++++++++++++",
">>>>>>>>>>,,,,,,,,,,<<<<<<<<<<11111111112222222222++++++++++++++++++++++++++++++",
">>>>>>>>>>,,,,,,,,,,<<<<<<<<<<11111111112222222222++++++++++++++++++++++++++++++",
">>>>>>>>>>,,,,,,,,,,<<<<<<<<<<11111111112222222222++++++++++++++++++++++++++++++",
">>>>>>>>>>,,,,,,,,,,<<<<<<<<<<11111111112222222222++++++++++++++++++++++++++++++",
"3333333333444444444455555555556666666666==========::::::::::++++++++++++++++++++",
"3333333333444444444455555555556666666666==========::::::::::++++++++++++++++++++",
"3333333333444444444455555555556666666666==========::::::::::++++++++++++++++++++",
"3333333333444444444455555555556666666666==========::::::::::++++++++++++++++++++",
"3333333333444444444455555555556666666666==========::::::::::++++++++++++++++++++",
"3333333333444444444455555555556666666666==========::::::::::++++++++++++++++++++",
"3333333333444444444455555555556666666666==========::::::::::++++++++++++++++++++",
"3333333333444444444455555555556666666666==========::::::::::++++++++++++++++++++",
"3333333333444444444455555555556666666666==========::::::::::++++++++++++++++++++",
"3333333333444444444455555555556666666666==========::::::::::++++++++++++++++++++",
"7777777777888888888899999999990000000000qqqqqqqqqq;;;;;;;;;;++++++++++$$$$$$$$$$",
"7777777777888888888899999999990000000000qqqqqqqqqq;;;;;;;;;;++++++++++$$$$$$$$$$",
"7777777777888888888899999999990000000000qqqqqqqqqq;;;;;;;;;;++++++++++$$$$$$$$$$",
"7777777777888888888899999999990000000000qqqqqqqqqq;;;;;;;;;;++++++++++$$$$$$$$$$",
"7777777777888888888899999999990000000000qqqqqqqqqq;;;;;;;;;;++++++++++$$$$$$$$$$",
"7777777777888888888899999999990000000000qqqqqqqqqq;;;;;;;;;;++++++++++$$$$$$$$$$",
"7777777777888888888899999999990000000000qqqqqqqqqq;;;;;;;;;;++++++++++$$$$$$$$$$",
"7777777777888888888899999999990000000000qqqqqqqqqq;;;;;;;;;;++++++++++$$$$$$$$$$",
"7777777777888888888899999999990000000000qqqqqqqqqq;;;;;;;;;;++++++++++$$$$$$$$$$",
"7777777777888888888899999999990000000000qqqqqqqqqq;;;;;;;;;;++++++++++$$$$$$$$$$",
"wwwwwwwwwweeeeeeeeeerrrrrrrrrrttttttttttyyyyyyyyyytttttttttt99999999998888888888",
"wwwwwwwwwweeeeeeeeeerrrrrrrrrrttttttttttyyyyyyyyyytttttttttt99999999998888888888",
"wwwwwwwwwweeeeeeeeeerrrrrrrrrrttttttttttyyyyyyyyyytttttttttt99999999998888888888",
"wwwwwwwwwweeeeeeeeeerrrrrrrrrrttttttttttyyyyyyyyyytttttttttt99999999998888888888",
"wwwwwwwwwweeeeeeeeeerrrrrrrrrrttttttttttyyyyyyyyyytttttttttt99999999998888888888",
"wwwwwwwwwweeeeeeeeeerrrrrrrrrrttttttttttyyyyyyyyyytttttttttt99999999998888888888",
"wwwwwwwwwweeeeeeeeeerrrrrrrrrrttttttttttyyyyyyyyyytttttttttt99999999998888888888",
"wwwwwwwwwweeeeeeeeeerrrrrrrrrrttttttttttyyyyyyyyyytttttttttt99999999998888888888",
"wwwwwwwwwweeeeeeeeeerrrrrrrrrrttttttttttyyyyyyyyyytttttttttt99999999998888888888",
"wwwwwwwwwweeeeeeeeeerrrrrrrrrrttttttttttyyyyyyyyyytttttttttt99999999998888888888"
};
