/* XPM */
static char *result[] = {
/* columns rows colors chars-per-pixel */
"80 80 8 1 ",
"  c #2A1D0D",
". c #241808",
"X c #1F100B",
"o c #2F1F0F",
"O c #261A0A",
"+ c #291C0C",
"@ c #865334",
"# c #75472F",
/* pixels */
"                    ..........                    ....................XXXXXXXXXX",
"                    ..........                    ....................XXXXXXXXXX",
"                    ..........                    ....................XXXXXXXXXX",
"                    ..........                    ....................XXXXXXXXXX",
"                    ..........                    ....................XXXXXXXXXX",
"                    ..........                    ....................XXXXXXXXXX",
"                    ..........                    ....................XXXXXXXXXX",
"                    ..........                    ....................XXXXXXXXXX",
"                    ..........                    ....................XXXXXXXXXX",
"                    ..........                    ....................XXXXXXXXXX",
"          ..........oooooooooooooooooooo          ..............................",
"          ..........oooooooooooooooooooo          ..............................",
"          ..........oooooooooooooooooooo          ..............................",
"          ..........oooooooooooooooooooo          ..............................",
"          ..........oooooooooooooooooooo          ..............................",
"          ..........oooooooooooooooooooo          ..............................",
"          ..........oooooooooooooooooooo          ..............................",
"          ..........oooooooooooooooooooo          ..............................",
"          ..........oooooooooooooooooooo          ..............................",
"          ..........oooooooooooooooooooo          ..............................",
"          ooooooooooooooooooooOOOOOOOOOO          ..............................",
"          ooooooooooooooooooooOOOOOOOOOO          ..............................",
"          ooooooooooooooooooooOOOOOOOOOO          ..............................",
"          ooooooooooooooooooooOOOOOOOOOO          ..............................",
"          ooooooooooooooooooooOOOOOOOOOO          ..............................",
"          ooooooooooooooooooooOOOOOOOOOO          ..............................",
"          ooooooooooooooooooooOOOOOOOOOO          ..............................",
"          ooooooooooooooooooooOOOOOOOOOO          ..............................",
"          ooooooooooooooooooooOOOOOOOOOO          ..............................",
"          ooooooooooooooooooooOOOOOOOOOO          ..............................",
"..........oooooooooo          ..........                    oooooooooo          ",
"..........oooooooooo          ..........                    oooooooooo          ",
"..........oooooooooo          ..........                    oooooooooo          ",
"..........oooooooooo          ..........                    oooooooooo          ",
"..........oooooooooo          ..........                    oooooooooo          ",
"..........oooooooooo          ..........                    oooooooooo          ",
"..........oooooooooo          ..........                    oooooooooo          ",
"..........oooooooooo          ..........                    oooooooooo          ",
"..........oooooooooo          ..........                    oooooooooo          ",
"..........oooooooooo          ..........                    oooooooooo          ",
"          oooooooooo          OOOOOOOOOOOOOOOOOOOOoooooooooooooooooooo          ",
"          oooooooooo          OOOOOOOOOOOOOOOOOOOOoooooooooooooooooooo          ",
"          oooooooooo          OOOOOOOOOOOOOOOOOOOOoooooooooooooooooooo          ",
"          oooooooooo          OOOOOOOOOOOOOOOOOOOOoooooooooooooooooooo          ",
"          oooooooooo          OOOOOOOOOOOOOOOOOOOOoooooooooooooooooooo          ",
"          oooooooooo          OOOOOOOOOOOOOOOOOOOOoooooooooooooooooooo          ",
"          oooooooooo          OOOOOOOOOOOOOOOOOOOOoooooooooooooooooooo          ",
"          oooooooooo          OOOOOOOOOOOOOOOOOOOOoooooooooooooooooooo          ",
"          oooooooooo          OOOOOOOOOOOOOOOOOOOOoooooooooooooooooooo          ",
"          oooooooooo          OOOOOOOOOOOOOOOOOOOOoooooooooooooooooooo          ",
"                    OOOOOOOOOOOOOOOOOOOOoooooooooooooooooooooooooooooo          ",
"                    OOOOOOOOOOOOOOOOOOOOoooooooooooooooooooooooooooooo          ",
"                    OOOOOOOOOOOOOOOOOOOOoooooooooooooooooooooooooooooo          ",
"                    OOOOOOOOOOOOOOOOOOOOoooooooooooooooooooooooooooooo          ",
"                    OOOOOOOOOOOOOOOOOOOOoooooooooooooooooooooooooooooo          ",
"                    OOOOOOOOOOOOOOOOOOOOoooooooooooooooooooooooooooooo          ",
"                    OOOOOOOOOOOOOOOOOOOOoooooooooooooooooooooooooooooo          ",
"                    OOOOOOOOOOOOOOOOOOOOoooooooooooooooooooooooooooooo          ",
"                    OOOOOOOOOOOOOOOOOOOOoooooooooooooooooooooooooooooo          ",
"                    OOOOOOOOOOOOOOOOOOOOoooooooooooooooooooooooooooooo          ",
"          OOOOOOOOOOoooooooooo++++++++++OOOOOOOOOOXXXXXXXXXXoooooooooo          ",
"          OOOOOOOOOOoooooooooo++++++++++OOOOOOOOOOXXXXXXXXXXoooooooooo          ",
"          OOOOOOOOOOoooooooooo++++++++++OOOOOOOOOOXXXXXXXXXXoooooooooo          ",
"          OOOOOOOOOOoooooooooo++++++++++OOOOOOOOOOXXXXXXXXXXoooooooooo          ",
"          OOOOOOOOOOoooooooooo++++++++++OOOOOOOOOOXXXXXXXXXXoooooooooo          ",
"          OOOOOOOOOOoooooooooo++++++++++OOOOOOOOOOXXXXXXXXXXoooooooooo          ",
"          OOOOOOOOOOoooooooooo++++++++++OOOOOOOOOOXXXXXXXXXXoooooooooo          ",
"          OOOOOOOOOOoooooooooo++++++++++OOOOOOOOOOXXXXXXXXXXoooooooooo          ",
"          OOOOOOOOOOoooooooooo++++++++++OOOOOOOOOOXXXXXXXXXXoooooooooo          ",
"          OOOOOOOOOOoooooooooo++++++++++OOOOOOOOOOXXXXXXXXXXoooooooooo          ",
"@@@@@@@@@@##########OOOOOOOOOOOOOOOOOOOOOOOOOOOOOOOOOOOOOOOO##########@@@@@@@@@@",
"@@@@@@@@@@##########OOOOOOOOOOOOOOOOOOOOOOOOOOOOOOOOOOOOOOOO##########@@@@@@@@@@",
"@@@@@@@@@@##########OOOOOOOOOOOOOOOOOOOOOOOOOOOOOOOOOOOOOOOO##########@@@@@@@@@@",
"@@@@@@@@@@##########OOOOOOOOOOOOOOOOOOOOOOOOOOOOOOOOOOOOOOOO##########@@@@@@@@@@",
"@@@@@@@@@@##########OOOOOOOOOOOOOOOOOOOOOOOOOOOOOOOOOOOOOOOO##########@@@@@@@@@@",
"@@@@@@@@@@##########OOOOOOOOOOOOOOOOOOOOOOOOOOOOOOOOOOOOOOOO##########@@@@@@@@@@",
"@@@@@@@@@@##########OOOOOOOOOOOOOOOOOOOOOOOOOOOOOOOOOOOOOOOO##########@@@@@@@@@@",
"@@@@@@@@@@##########OOOOOOOOOOOOOOOOOOOOOOOOOOOOOOOOOOOOOOOO##########@@@@@@@@@@",
"@@@@@@@@@@##########OOOOOOOOOOOOOOOOOOOOOOOOOOOOOOOOOOOOOOOO##########@@@@@@@@@@",
"@@@@@@@@@@##########OOOOOOOOOOOOOOOOOOOOOOOOOOOOOOOOOOOOOOOO##########@@@@@@@@@@"
};
