/* XPM */
static char *_94bf8d11eb645a1fe232da54a455277CxvjzycxrrRJySHV[] = {
/* columns rows colors chars-per-pixel */
"80 80 33 1 ",
"  c #74482F",
". c #75472F",
"X c #885A39",
"o c #3A2814",
"O c #2F2211",
"+ c #291C0C",
"@ c #332411",
"# c #2D2010",
"$ c #8A593B",
"% c #865334",
"& c #965F41",
"* c #9C6345",
"= c #2C1E0E",
"- c #24180A",
"; c #2B1E0D",
": c #9A6344",
"> c #845231",
", c #87583A",
"< c #271B0B",
"1 c #281B0B",
"2 c #322310",
"3 c #9C6748",
"4 c #9D6A4F",
"5 c #2C1E11",
"6 c #231709",
"7 c #281B0A",
"8 c #2B1E0E",
"9 c #62432F",
"0 c #26180B",
"q c #261A0C",
"w c #261A0A",
"e c #2D1D0E",
"r c #281A0D",
/* pixels */
"          ..........XXXXXXXXXXooooooooooOOOOOOOOOO++++++++++@@@@@@@@@@##########",
"          ..........XXXXXXXXXXooooooooooOOOOOOOOOO++++++++++@@@@@@@@@@##########",
"          ..........XXXXXXXXXXooooooooooOOOOOOOOOO++++++++++@@@@@@@@@@##########",
"          ..........XXXXXXXXXXooooooooooOOOOOOOOOO++++++++++@@@@@@@@@@##########",
"          ..........XXXXXXXXXXooooooooooOOOOOOOOOO++++++++++@@@@@@@@@@##########",
"          ..........XXXXXXXXXXooooooooooOOOOOOOOOO++++++++++@@@@@@@@@@##########",
"          ..........XXXXXXXXXXooooooooooOOOOOOOOOO++++++++++@@@@@@@@@@##########",
"          ..........XXXXXXXXXXooooooooooOOOOOOOOOO++++++++++@@@@@@@@@@##########",
"          ..........XXXXXXXXXXooooooooooOOOOOOOOOO++++++++++@@@@@@@@@@##########",
"          ..........XXXXXXXXXXooooooooooOOOOOOOOOO++++++++++@@@@@@@@@@##########",
"$$$$$$$$$$%%%%%%%%%%&&&&&&&&&&**********==========----------;;;;;;;;;;##########",
"$$$$$$$$$$%%%%%%%%%%&&&&&&&&&&**********==========----------;;;;;;;;;;##########",
"$$$$$$$$$$%%%%%%%%%%&&&&&&&&&&**********==========----------;;;;;;;;;;##########",
"$$$$$$$$$$%%%%%%%%%%&&&&&&&&&&**********==========----------;;;;;;;;;;##########",
"$$$$$$$$$$%%%%%%%%%%&&&&&&&&&&**********==========----------;;;;;;;;;;##########",
"$$$$$$$$$$%%%%%%%%%%&&&&&&&&&&**********==========----------;;;;;;;;;;##########",
"$$$$$$$$$$%%%%%%%%%%&&&&&&&&&&**********==========----------;;;;;;;;;;##########",
"$$$$$$$$$$%%%%%%%%%%&&&&&&&&&&**********==========----------;;;;;;;;;;##########",
"$$$$$$$$$$%%%%%%%%%%&&&&&&&&&&**********==========----------;;;;;;;;;;##########",
"$$$$$$$$$$%%%%%%%%%%&&&&&&&&&&**********==========----------;;;;;;;;;;##########",
"&&&&&&&&&&::::::::::>>>>>>>>>>,,,,,,,,,,<<<<<<<<<<1111111111++++++++++2222222222",
"&&&&&&&&&&::::::::::>>>>>>>>>>,,,,,,,,,,<<<<<<<<<<1111111111++++++++++2222222222",
"&&&&&&&&&&::::::::::>>>>>>>>>>,,,,,,,,,,<<<<<<<<<<1111111111++++++++++2222222222",
"&&&&&&&&&&::::::::::>>>>>>>>>>,,,,,,,,,,<<<<<<<<<<1111111111++++++++++2222222222",
"&&&&&&&&&&::::::::::>>>>>>>>>>,,,,,,,,,,<<<<<<<<<<1111111111++++++++++2222222222",
"&&&&&&&&&&::::::::::>>>>>>>>>>,,,,,,,,,,<<<<<<<<<<1111111111++++++++++2222222222",
"&&&&&&&&&&::::::::::>>>>>>>>>>,,,,,,,,,,<<<<<<<<<<1111111111++++++++++2222222222",
"&&&&&&&&&&::::::::::>>>>>>>>>>,,,,,,,,,,<<<<<<<<<<1111111111++++++++++2222222222",
"&&&&&&&&&&::::::::::>>>>>>>>>>,,,,,,,,,,<<<<<<<<<<1111111111++++++++++2222222222",
"&&&&&&&&&&::::::::::>>>>>>>>>>,,,,,,,,,,<<<<<<<<<<1111111111++++++++++2222222222",
"333333333344444444445555555555666666666677777777778888888888==========++++++++++",
"333333333344444444445555555555666666666677777777778888888888==========++++++++++",
"333333333344444444445555555555666666666677777777778888888888==========++++++++++",
"333333333344444444445555555555666666666677777777778888888888==========++++++++++",
"333333333344444444445555555555666666666677777777778888888888==========++++++++++",
"333333333344444444445555555555666666666677777777778888888888==========++++++++++",
"333333333344444444445555555555666666666677777777778888888888==========++++++++++",
"333333333344444444445555555555666666666677777777778888888888==========++++++++++",
"333333333344444444445555555555666666666677777777778888888888==========++++++++++",
"333333333344444444445555555555666666666677777777778888888888==========++++++++++",
"%%%%%%%%%%99999999990000000000qqqqqqqqqq==========++++++++++wwwwwwwwww<<<<<<<<<<",
"%%%%%%%%%%99999999990000000000qqqqqqqqqq==========++++++++++wwwwwwwwww<<<<<<<<<<",
"%%%%%%%%%%99999999990000000000qqqqqqqqqq==========++++++++++wwwwwwwwww<<<<<<<<<<",
"%%%%%%%%%%99999999990000000000qqqqqqqqqq==========++++++++++wwwwwwwwww<<<<<<<<<<",
"%%%%%%%%%%99999999990000000000qqqqqqqqqq==========++++++++++wwwwwwwwww<<<<<<<<<<",
"%%%%%%%%%%99999999990000000000qqqqqqqqqq==========++++++++++wwwwwwwwww<<<<<<<<<<",
"%%%%%%%%%%99999999990000000000qqqqqqqqqq==========++++++++++wwwwwwwwww<<<<<<<<<<",
"%%%%%%%%%%99999999990000000000qqqqqqqqqq==========++++++++++wwwwwwwwww<<<<<<<<<<",
"%%%%%%%%%%99999999990000000000qqqqqqqqqq==========++++++++++wwwwwwwwww<<<<<<<<<<",
"%%%%%%%%%%99999999990000000000qqqqqqqqqq==========++++++++++wwwwwwwwww<<<<<<<<<<",
"::::::::::eeeeeeeeeerrrrrrrrrr7777777777eeeeeeeeeewwwwwwwwwwwwwwwwwwwwwwwwwwwwww",
"::::::::::eeeeeeeeeerrrrrrrrrr7777777777eeeeeeeeeewwwwwwwwwwwwwwwwwwwwwwwwwwwwww",
"::::::::::eeeeeeeeeerrrrrrrrrr7777777777eeeeeeeeeewwwwwwwwwwwwwwwwwwwwwwwwwwwwww",
"::::::::::eeeeeeeeeerrrrrrrrrr7777777777eeeeeeeeeewwwwwwwwwwwwwwwwwwwwwwwwwwwwww",
"::::::::::eeeeeeeeeerrrrrrrrrr7777777777eeeeeeeeeewwwwwwwwwwwwwwwwwwwwwwwwwwwwww",
"::::::::::eeeeeeeeeerrrrrrrrrr7777777777eeeeeeeeeewwwwwwwwwwwwwwwwwwwwwwwwwwwwww",
"::::::::::eeeeeeeeeerrrrrrrrrr7777777777eeeeeeeeeewwwwwwwwwwwwwwwwwwwwwwwwwwwwww",
"::::::::::eeeeeeeeeerrrrrrrrrr7777777777eeeeeeeeeewwwwwwwwwwwwwwwwwwwwwwwwwwwwww",
"::::::::::eeeeeeeeeerrrrrrrrrr7777777777eeeeeeeeeewwwwwwwwwwwwwwwwwwwwwwwwwwwwww",
"::::::::::eeeeeeeeeerrrrrrrrrr7777777777eeeeeeeeeewwwwwwwwwwwwwwwwwwwwwwwwwwwwww",
"%%%%%%%%%%777777777777777777777777777777rrrrrrrrrr000000000077777777777777777777",
"%%%%%%%%%%777777777777777777777777777777rrrrrrrrrr000000000077777777777777777777",
"%%%%%%%%%%777777777777777777777777777777rrrrrrrrrr000000000077777777777777777777",
"%%%%%%%%%%777777777777777777777777777777rrrrrrrrrr000000000077777777777777777777",
"%%%%%%%%%%777777777777777777777777777777rrrrrrrrrr000000000077777777777777777777",
"%%%%%%%%%%777777777777777777777777777777rrrrrrrrrr000000000077777777777777777777",
"%%%%%%%%%%777777777777777777777777777777rrrrrrrrrr000000000077777777777777777777",
"%%%%%%%%%%777777777777777777777777777777rrrrrrrrrr000000000077777777777777777777",
"%%%%%%%%%%777777777777777777777777777777rrrrrrrrrr000000000077777777777777777777",
"%%%%%%%%%%777777777777777777777777777777rrrrrrrrrr000000000077777777777777777777",
"%%%%%%%%%%==========777777777777777777777777777777==========77777777777777777777",
"%%%%%%%%%%==========777777777777777777777777777777==========77777777777777777777",
"%%%%%%%%%%==========777777777777777777777777777777==========77777777777777777777",
"%%%%%%%%%%==========777777777777777777777777777777==========77777777777777777777",
"%%%%%%%%%%==========777777777777777777777777777777==========77777777777777777777",
"%%%%%%%%%%==========777777777777777777777777777777==========77777777777777777777",
"%%%%%%%%%%==========777777777777777777777777777777==========77777777777777777777",
"%%%%%%%%%%==========777777777777777777777777777777==========77777777777777777777",
"%%%%%%%%%%==========777777777777777777777777777777==========77777777777777777777",
"%%%%%%%%%%==========777777777777777777777777777777==========77777777777777777777"
};
