/* XPM */
static char *_5d2dbbb6d544dc9a49b165258d3544865cz77t4twqui7Xo[] = {
/* columns rows colors chars-per-pixel */
"80 80 6 1 ",
"  c #1F100B",
". c #241808",
"X c #2A1D0D",
"o c #2F1F0F",
"O c #261A0A",
"+ c #291C0C",
/* pixels */
"          ....................XXXXXXXXXXXXXXXXXXXXXXXXXXXXXXXXXXXXXXXXXXXXXXXXXX",
"          ....................XXXXXXXXXXXXXXXXXXXXXXXXXXXXXXXXXXXXXXXXXXXXXXXXXX",
"          ....................XXXXXXXXXXXXXXXXXXXXXXXXXXXXXXXXXXXXXXXXXXXXXXXXXX",
"          ....................XXXXXXXXXXXXXXXXXXXXXXXXXXXXXXXXXXXXXXXXXXXXXXXXXX",
"          ....................XXXXXXXXXXXXXXXXXXXXXXXXXXXXXXXXXXXXXXXXXXXXXXXXXX",
"          ....................XXXXXXXXXXXXXXXXXXXXXXXXXXXXXXXXXXXXXXXXXXXXXXXXXX",
"          ....................XXXXXXXXXXXXXXXXXXXXXXXXXXXXXXXXXXXXXXXXXXXXXXXXXX",
"          ....................XXXXXXXXXXXXXXXXXXXXXXXXXXXXXXXXXXXXXXXXXXXXXXXXXX",
"          ....................XXXXXXXXXXXXXXXXXXXXXXXXXXXXXXXXXXXXXXXXXXXXXXXXXX",
"          ....................XXXXXXXXXXXXXXXXXXXXXXXXXXXXXXXXXXXXXXXXXXXXXXXXXX",
"..............................ooooooooooooooooooooooooooooooooooooooooXXXXXXXXXX",
"..............................ooooooooooooooooooooooooooooooooooooooooXXXXXXXXXX",
"..............................ooooooooooooooooooooooooooooooooooooooooXXXXXXXXXX",
"..............................ooooooooooooooooooooooooooooooooooooooooXXXXXXXXXX",
"..............................ooooooooooooooooooooooooooooooooooooooooXXXXXXXXXX",
"..............................ooooooooooooooooooooooooooooooooooooooooXXXXXXXXXX",
"..............................ooooooooooooooooooooooooooooooooooooooooXXXXXXXXXX",
"..............................ooooooooooooooooooooooooooooooooooooooooXXXXXXXXXX",
"..............................ooooooooooooooooooooooooooooooooooooooooXXXXXXXXXX",
"..............................ooooooooooooooooooooooooooooooooooooooooXXXXXXXXXX",
"..............................XXXXXXXXXXoooooooooooooooooooo          OOOOOOOOOO",
"..............................XXXXXXXXXXoooooooooooooooooooo          OOOOOOOOOO",
"..............................XXXXXXXXXXoooooooooooooooooooo          OOOOOOOOOO",
"..............................XXXXXXXXXXoooooooooooooooooooo          OOOOOOOOOO",
"..............................XXXXXXXXXXoooooooooooooooooooo          OOOOOOOOOO",
"..............................XXXXXXXXXXoooooooooooooooooooo          OOOOOOOOOO",
"..............................XXXXXXXXXXoooooooooooooooooooo          OOOOOOOOOO",
"..............................XXXXXXXXXXoooooooooooooooooooo          OOOOOOOOOO",
"..............................XXXXXXXXXXoooooooooooooooooooo          OOOOOOOOOO",
"..............................XXXXXXXXXXoooooooooooooooooooo          OOOOOOOOOO",
"XXXXXXXXXXXXXXXXXXXXXXXXXXXXXXXXXXXXXXXXOOOOOOOOOOooooooooooOOOOOOOOOOOOOOOOOOOO",
"XXXXXXXXXXXXXXXXXXXXXXXXXXXXXXXXXXXXXXXXOOOOOOOOOOooooooooooOOOOOOOOOOOOOOOOOOOO",
"XXXXXXXXXXXXXXXXXXXXXXXXXXXXXXXXXXXXXXXXOOOOOOOOOOooooooooooOOOOOOOOOOOOOOOOOOOO",
"XXXXXXXXXXXXXXXXXXXXXXXXXXXXXXXXXXXXXXXXOOOOOOOOOOooooooooooOOOOOOOOOOOOOOOOOOOO",
"XXXXXXXXXXXXXXXXXXXXXXXXXXXXXXXXXXXXXXXXOOOOOOOOOOooooooooooOOOOOOOOOOOOOOOOOOOO",
"XXXXXXXXXXXXXXXXXXXXXXXXXXXXXXXXXXXXXXXXOOOOOOOOOOooooooooooOOOOOOOOOOOOOOOOOOOO",
"XXXXXXXXXXXXXXXXXXXXXXXXXXXXXXXXXXXXXXXXOOOOOOOOOOooooooooooOOOOOOOOOOOOOOOOOOOO",
"XXXXXXXXXXXXXXXXXXXXXXXXXXXXXXXXXXXXXXXXOOOOOOOOOOooooooooooOOOOOOOOOOOOOOOOOOOO",
"XXXXXXXXXXXXXXXXXXXXXXXXXXXXXXXXXXXXXXXXOOOOOOOOOOooooooooooOOOOOOOOOOOOOOOOOOOO",
"XXXXXXXXXXXXXXXXXXXXXXXXXXXXXXXXXXXXXXXXOOOOOOOOOOooooooooooOOOOOOOOOOOOOOOOOOOO",
"XXXXXXXXXXooooooooooOOOOOOOOOO..........OOOOOOOOOOOOOOOOOOOO++++++++++OOOOOOOOOO",
"XXXXXXXXXXooooooooooOOOOOOOOOO..........OOOOOOOOOOOOOOOOOOOO++++++++++OOOOOOOOOO",
"XXXXXXXXXXooooooooooOOOOOOOOOO..........OOOOOOOOOOOOOOOOOOOO++++++++++OOOOOOOOOO",
"XXXXXXXXXXooooooooooOOOOOOOOOO..........OOOOOOOOOOOOOOOOOOOO++++++++++OOOOOOOOOO",
"XXXXXXXXXXooooooooooOOOOOOOOOO..........OOOOOOOOOOOOOOOOOOOO++++++++++OOOOOOOOOO",
"XXXXXXXXXXooooooooooOOOOOOOOOO..........OOOOOOOOOOOOOOOOOOOO++++++++++OOOOOOOOOO",
"XXXXXXXXXXooooooooooOOOOOOOOOO..........OOOOOOOOOOOOOOOOOOOO++++++++++OOOOOOOOOO",
"XXXXXXXXXXooooooooooOOOOOOOOOO..........OOOOOOOOOOOOOOOOOOOO++++++++++OOOOOOOOOO",
"XXXXXXXXXXooooooooooOOOOOOOOOO..........OOOOOOOOOOOOOOOOOOOO++++++++++OOOOOOOOOO",
"XXXXXXXXXXooooooooooOOOOOOOOOO..........OOOOOOOOOOOOOOOOOOOO++++++++++OOOOOOOOOO",
"..........ooooooooooooooooooooXXXXXXXXXXXXXXXXXXXXOOOOOOOOOOooooooooooOOOOOOOOOO",
"..........ooooooooooooooooooooXXXXXXXXXXXXXXXXXXXXOOOOOOOOOOooooooooooOOOOOOOOOO",
"..........ooooooooooooooooooooXXXXXXXXXXXXXXXXXXXXOOOOOOOOOOooooooooooOOOOOOOOOO",
"..........ooooooooooooooooooooXXXXXXXXXXXXXXXXXXXXOOOOOOOOOOooooooooooOOOOOOOOOO",
"..........ooooooooooooooooooooXXXXXXXXXXXXXXXXXXXXOOOOOOOOOOooooooooooOOOOOOOOOO",
"..........ooooooooooooooooooooXXXXXXXXXXXXXXXXXXXXOOOOOOOOOOooooooooooOOOOOOOOOO",
"..........ooooooooooooooooooooXXXXXXXXXXXXXXXXXXXXOOOOOOOOOOooooooooooOOOOOOOOOO",
"..........ooooooooooooooooooooXXXXXXXXXXXXXXXXXXXXOOOOOOOOOOooooooooooOOOOOOOOOO",
"..........ooooooooooooooooooooXXXXXXXXXXXXXXXXXXXXOOOOOOOOOOooooooooooOOOOOOOOOO",
"..........ooooooooooooooooooooXXXXXXXXXXXXXXXXXXXXOOOOOOOOOOooooooooooOOOOOOOOOO",
"XXXXXXXXXX..........ooooooooooooooooooooooooooooooXXXXXXXXXXOOOOOOOOOO++++++++++",
"XXXXXXXXXX..........ooooooooooooooooooooooooooooooXXXXXXXXXXOOOOOOOOOO++++++++++",
"XXXXXXXXXX..........ooooooooooooooooooooooooooooooXXXXXXXXXXOOOOOOOOOO++++++++++",
"XXXXXXXXXX..........ooooooooooooooooooooooooooooooXXXXXXXXXXOOOOOOOOOO++++++++++",
"XXXXXXXXXX..........ooooooooooooooooooooooooooooooXXXXXXXXXXOOOOOOOOOO++++++++++",
"XXXXXXXXXX..........ooooooooooooooooooooooooooooooXXXXXXXXXXOOOOOOOOOO++++++++++",
"XXXXXXXXXX..........ooooooooooooooooooooooooooooooXXXXXXXXXXOOOOOOOOOO++++++++++",
"XXXXXXXXXX..........ooooooooooooooooooooooooooooooXXXXXXXXXXOOOOOOOOOO++++++++++",
"XXXXXXXXXX..........ooooooooooooooooooooooooooooooXXXXXXXXXXOOOOOOOOOO++++++++++",
"XXXXXXXXXX..........ooooooooooooooooooooooooooooooXXXXXXXXXXOOOOOOOOOO++++++++++",
"XXXXXXXXXXXXXXXXXXXXXXXXXXXXXX..........XXXXXXXXXXXXXXXXXXXXXXXXXXXXXXXXXXXXXXXX",
"XXXXXXXXXXXXXXXXXXXXXXXXXXXXXX..........XXXXXXXXXXXXXXXXXXXXXXXXXXXXXXXXXXXXXXXX",
"XXXXXXXXXXXXXXXXXXXXXXXXXXXXXX..........XXXXXXXXXXXXXXXXXXXXXXXXXXXXXXXXXXXXXXXX",
"XXXXXXXXXXXXXXXXXXXXXXXXXXXXXX..........XXXXXXXXXXXXXXXXXXXXXXXXXXXXXXXXXXXXXXXX",
"XXXXXXXXXXXXXXXXXXXXXXXXXXXXXX..........XXXXXXXXXXXXXXXXXXXXXXXXXXXXXXXXXXXXXXXX",
"XXXXXXXXXXXXXXXXXXXXXXXXXXXXXX..........XXXXXXXXXXXXXXXXXXXXXXXXXXXXXXXXXXXXXXXX",
"XXXXXXXXXXXXXXXXXXXXXXXXXXXXXX..........XXXXXXXXXXXXXXXXXXXXXXXXXXXXXXXXXXXXXXXX",
"XXXXXXXXXXXXXXXXXXXXXXXXXXXXXX..........XXXXXXXXXXXXXXXXXXXXXXXXXXXXXXXXXXXXXXXX",
"XXXXXXXXXXXXXXXXXXXXXXXXXXXXXX..........XXXXXXXXXXXXXXXXXXXXXXXXXXXXXXXXXXXXXXXX",
"XXXXXXXXXXXXXXXXXXXXXXXXXXXXXX..........XXXXXXXXXXXXXXXXXXXXXXXXXXXXXXXXXXXXXXXX"
};
