/* XPM */
static char *_5a12a17d3d94d4af2a6fffa9a364c16xChFu0P0F2GjdUYg[] = {
/* columns rows colors chars-per-pixel */
"80 80 43 1 ",
"  c #2F200D",
". c #2B1E0D",
"X c #2F1F0F",
"o c #281C0B",
"O c #241808",
"+ c #261A0A",
"@ c #2A1D0D",
"# c #332411",
"$ c #422A12",
"% c #3F2A15",
"& c #2C1E0E",
"* c #B6896C",
"= c #BD8E72",
"- c #C69680",
"; c #BD8B72",
": c #BD8E74",
"> c #AC765A",
", c #342512",
"< c #AA7D66",
"1 c #B4846D",
"2 c #AD806D",
"3 c #9C725C",
"4 c #BB8972",
"5 c #9C694C",
"6 c white",
"7 c #523D89",
"8 c #B57B67",
"9 c #9C6346",
"0 c #B37B62",
"q c #B78272",
"w c #6A4030",
"e c #BE886C",
"r c #A26A47",
"t c #805334",
"y c #905E43",
"u c #965F40",
"i c #774235",
"p c #8F5E3E",
"a c #815339",
"s c #6F452C",
"d c #6D432A",
"f c #7A4E33",
"g c #83553B",
/* pixels */
"          ..........XXXXXXXXXXooooooooooOOOOOOOOOO++++++++++..........@@@@@@@@@@",
"          ..........XXXXXXXXXXooooooooooOOOOOOOOOO++++++++++..........@@@@@@@@@@",
"          ..........XXXXXXXXXXooooooooooOOOOOOOOOO++++++++++..........@@@@@@@@@@",
"          ..........XXXXXXXXXXooooooooooOOOOOOOOOO++++++++++..........@@@@@@@@@@",
"          ..........XXXXXXXXXXooooooooooOOOOOOOOOO++++++++++..........@@@@@@@@@@",
"          ..........XXXXXXXXXXooooooooooOOOOOOOOOO++++++++++..........@@@@@@@@@@",
"          ..........XXXXXXXXXXooooooooooOOOOOOOOOO++++++++++..........@@@@@@@@@@",
"          ..........XXXXXXXXXXooooooooooOOOOOOOOOO++++++++++..........@@@@@@@@@@",
"          ..........XXXXXXXXXXooooooooooOOOOOOOOOO++++++++++..........@@@@@@@@@@",
"          ..........XXXXXXXXXXooooooooooOOOOOOOOOO++++++++++..........@@@@@@@@@@",
"..............................##########$$$$$$$$$$%%%%%%%%%%&&&&&&&&&&oooooooooo",
"..............................##########$$$$$$$$$$%%%%%%%%%%&&&&&&&&&&oooooooooo",
"..............................##########$$$$$$$$$$%%%%%%%%%%&&&&&&&&&&oooooooooo",
"..............................##########$$$$$$$$$$%%%%%%%%%%&&&&&&&&&&oooooooooo",
"..............................##########$$$$$$$$$$%%%%%%%%%%&&&&&&&&&&oooooooooo",
"..............................##########$$$$$$$$$$%%%%%%%%%%&&&&&&&&&&oooooooooo",
"..............................##########$$$$$$$$$$%%%%%%%%%%&&&&&&&&&&oooooooooo",
"..............................##########$$$$$$$$$$%%%%%%%%%%&&&&&&&&&&oooooooooo",
"..............................##########$$$$$$$$$$%%%%%%%%%%&&&&&&&&&&oooooooooo",
"..............................##########$$$$$$$$$$%%%%%%%%%%&&&&&&&&&&oooooooooo",
"..........**********==========----------;;;;;;;;;;::::::::::>>>>>>>>>>,,,,,,,,,,",
"..........**********==========----------;;;;;;;;;;::::::::::>>>>>>>>>>,,,,,,,,,,",
"..........**********==========----------;;;;;;;;;;::::::::::>>>>>>>>>>,,,,,,,,,,",
"..........**********==========----------;;;;;;;;;;::::::::::>>>>>>>>>>,,,,,,,,,,",
"..........**********==========----------;;;;;;;;;;::::::::::>>>>>>>>>>,,,,,,,,,,",
"..........**********==========----------;;;;;;;;;;::::::::::>>>>>>>>>>,,,,,,,,,,",
"..........**********==========----------;;;;;;;;;;::::::::::>>>>>>>>>>,,,,,,,,,,",
"..........**********==========----------;;;;;;;;;;::::::::::>>>>>>>>>>,,,,,,,,,,",
"..........**********==========----------;;;;;;;;;;::::::::::>>>>>>>>>>,,,,,,,,,,",
"..........**********==========----------;;;;;;;;;;::::::::::>>>>>>>>>>,,,,,,,,,,",
"<<<<<<<<<<1111111111<<<<<<<<<<22222222223333333333444444444455555555555555555555",
"<<<<<<<<<<1111111111<<<<<<<<<<22222222223333333333444444444455555555555555555555",
"<<<<<<<<<<1111111111<<<<<<<<<<22222222223333333333444444444455555555555555555555",
"<<<<<<<<<<1111111111<<<<<<<<<<22222222223333333333444444444455555555555555555555",
"<<<<<<<<<<1111111111<<<<<<<<<<22222222223333333333444444444455555555555555555555",
"<<<<<<<<<<1111111111<<<<<<<<<<22222222223333333333444444444455555555555555555555",
"<<<<<<<<<<1111111111<<<<<<<<<<22222222223333333333444444444455555555555555555555",
"<<<<<<<<<<1111111111<<<<<<<<<<22222222223333333333444444444455555555555555555555",
"<<<<<<<<<<1111111111<<<<<<<<<<22222222223333333333444444444455555555555555555555",
"<<<<<<<<<<1111111111<<<<<<<<<<22222222223333333333444444444455555555555555555555",
"1111111111666666666677777777778888888888444444444477777777776666666666<<<<<<<<<<",
"1111111111666666666677777777778888888888444444444477777777776666666666<<<<<<<<<<",
"1111111111666666666677777777778888888888444444444477777777776666666666<<<<<<<<<<",
"1111111111666666666677777777778888888888444444444477777777776666666666<<<<<<<<<<",
"1111111111666666666677777777778888888888444444444477777777776666666666<<<<<<<<<<",
"1111111111666666666677777777778888888888444444444477777777776666666666<<<<<<<<<<",
"1111111111666666666677777777778888888888444444444477777777776666666666<<<<<<<<<<",
"1111111111666666666677777777778888888888444444444477777777776666666666<<<<<<<<<<",
"1111111111666666666677777777778888888888444444444477777777776666666666<<<<<<<<<<",
"1111111111666666666677777777778888888888444444444477777777776666666666<<<<<<<<<<",
"99999999990000000000qqqqqqqqqqwwwwwwwwwwwwwwwwwwwweeeeeeeeeerrrrrrrrrrtttttttttt",
"99999999990000000000qqqqqqqqqqwwwwwwwwwwwwwwwwwwwweeeeeeeeeerrrrrrrrrrtttttttttt",
"99999999990000000000qqqqqqqqqqwwwwwwwwwwwwwwwwwwwweeeeeeeeeerrrrrrrrrrtttttttttt",
"99999999990000000000qqqqqqqqqqwwwwwwwwwwwwwwwwwwwweeeeeeeeeerrrrrrrrrrtttttttttt",
"99999999990000000000qqqqqqqqqqwwwwwwwwwwwwwwwwwwwweeeeeeeeeerrrrrrrrrrtttttttttt",
"99999999990000000000qqqqqqqqqqwwwwwwwwwwwwwwwwwwwweeeeeeeeeerrrrrrrrrrtttttttttt",
"99999999990000000000qqqqqqqqqqwwwwwwwwwwwwwwwwwwwweeeeeeeeeerrrrrrrrrrtttttttttt",
"99999999990000000000qqqqqqqqqqwwwwwwwwwwwwwwwwwwwweeeeeeeeeerrrrrrrrrrtttttttttt",
"99999999990000000000qqqqqqqqqqwwwwwwwwwwwwwwwwwwwweeeeeeeeeerrrrrrrrrrtttttttttt",
"99999999990000000000qqqqqqqqqqwwwwwwwwwwwwwwwwwwwweeeeeeeeeerrrrrrrrrrtttttttttt",
"yyyyyyyyyyuuuuuuuuuuiiiiiiiiiiiiiiiiiiiiiiiiiiiiiiiiiiiiiiiippppppppppaaaaaaaaaa",
"yyyyyyyyyyuuuuuuuuuuiiiiiiiiiiiiiiiiiiiiiiiiiiiiiiiiiiiiiiiippppppppppaaaaaaaaaa",
"yyyyyyyyyyuuuuuuuuuuiiiiiiiiiiiiiiiiiiiiiiiiiiiiiiiiiiiiiiiippppppppppaaaaaaaaaa",
"yyyyyyyyyyuuuuuuuuuuiiiiiiiiiiiiiiiiiiiiiiiiiiiiiiiiiiiiiiiippppppppppaaaaaaaaaa",
"yyyyyyyyyyuuuuuuuuuuiiiiiiiiiiiiiiiiiiiiiiiiiiiiiiiiiiiiiiiippppppppppaaaaaaaaaa",
"yyyyyyyyyyuuuuuuuuuuiiiiiiiiiiiiiiiiiiiiiiiiiiiiiiiiiiiiiiiippppppppppaaaaaaaaaa",
"yyyyyyyyyyuuuuuuuuuuiiiiiiiiiiiiiiiiiiiiiiiiiiiiiiiiiiiiiiiippppppppppaaaaaaaaaa",
"yyyyyyyyyyuuuuuuuuuuiiiiiiiiiiiiiiiiiiiiiiiiiiiiiiiiiiiiiiiippppppppppaaaaaaaaaa",
"yyyyyyyyyyuuuuuuuuuuiiiiiiiiiiiiiiiiiiiiiiiiiiiiiiiiiiiiiiiippppppppppaaaaaaaaaa",
"yyyyyyyyyyuuuuuuuuuuiiiiiiiiiiiiiiiiiiiiiiiiiiiiiiiiiiiiiiiippppppppppaaaaaaaaaa",
"ssssssssssddddddddddaaaaaaaaaaaaaaaaaaaaffffffffffggggggggggggggggggggffffffffff",
"ssssssssssddddddddddaaaaaaaaaaaaaaaaaaaaffffffffffggggggggggggggggggggffffffffff",
"ssssssssssddddddddddaaaaaaaaaaaaaaaaaaaaffffffffffggggggggggggggggggggffffffffff",
"ssssssssssddddddddddaaaaaaaaaaaaaaaaaaaaffffffffffggggggggggggggggggggffffffffff",
"ssssssssssddddddddddaaaaaaaaaaaaaaaaaaaaffffffffffggggggggggggggggggggffffffffff",
"ssssssssssddddddddddaaaaaaaaaaaaaaaaaaaaffffffffffggggggggggggggggggggffffffffff",
"ssssssssssddddddddddaaaaaaaaaaaaaaaaaaaaffffffffffggggggggggggggggggggffffffffff",
"ssssssssssddddddddddaaaaaaaaaaaaaaaaaaaaffffffffffggggggggggggggggggggffffffffff",
"ssssssssssddddddddddaaaaaaaaaaaaaaaaaaaaffffffffffggggggggggggggggggggffffffffff",
"ssssssssssddddddddddaaaaaaaaaaaaaaaaaaaaffffffffffggggggggggggggggggggffffffffff"
};
