/* XPM */
static char *result[] = {
/* columns rows colors chars-per-pixel */
"40 120 3 1 ",
"  c #00AFAF",
". c #AA7D66",
"X c #966F5B",
/* pixels */
"                                        ",
"                                        ",
"                                        ",
"                                        ",
"                                        ",
"                                        ",
"                                        ",
"                                        ",
"                                        ",
"                                        ",
"                                        ",
"                                        ",
"                                        ",
"                                        ",
"                                        ",
"                                        ",
"                                        ",
"                                        ",
"                                        ",
"                                        ",
"                                        ",
"                                        ",
"                                        ",
"                                        ",
"                                        ",
"                                        ",
"                                        ",
"                                        ",
"                                        ",
"                                        ",
"                                        ",
"                                        ",
"                                        ",
"                                        ",
"                                        ",
"                                        ",
"                                        ",
"                                        ",
"                                        ",
"                                        ",
"........................................",
"........................................",
"........................................",
"........................................",
"........................................",
"........................................",
"........................................",
"........................................",
"........................................",
"........................................",
"........................................",
"........................................",
"........................................",
"........................................",
"........................................",
"........................................",
"........................................",
"........................................",
"........................................",
"........................................",
"..........XXXXXXXXXXXXXXXXXXXX..........",
"..........XXXXXXXXXXXXXXXXXXXX..........",
"..........XXXXXXXXXXXXXXXXXXXX..........",
"..........XXXXXXXXXXXXXXXXXXXX..........",
"..........XXXXXXXXXXXXXXXXXXXX..........",
"..........XXXXXXXXXXXXXXXXXXXX..........",
"..........XXXXXXXXXXXXXXXXXXXX..........",
"..........XXXXXXXXXXXXXXXXXXXX..........",
"..........XXXXXXXXXXXXXXXXXXXX..........",
"..........XXXXXXXXXXXXXXXXXXXX..........",
"........................................",
"........................................",
"........................................",
"........................................",
"........................................",
"........................................",
"........................................",
"........................................",
"........................................",
"........................................",
"........................................",
"........................................",
"........................................",
"........................................",
"........................................",
"........................................",
"........................................",
"........................................",
"........................................",
"........................................",
"..........XXXXXXXXXX..........XXXXXXXXXX",
"..........XXXXXXXXXX..........XXXXXXXXXX",
"..........XXXXXXXXXX..........XXXXXXXXXX",
"..........XXXXXXXXXX..........XXXXXXXXXX",
"..........XXXXXXXXXX..........XXXXXXXXXX",
"..........XXXXXXXXXX..........XXXXXXXXXX",
"..........XXXXXXXXXX..........XXXXXXXXXX",
"..........XXXXXXXXXX..........XXXXXXXXXX",
"..........XXXXXXXXXX..........XXXXXXXXXX",
"..........XXXXXXXXXX..........XXXXXXXXXX",
"..........XXXXXXXXXX..........XXXXXXXXXX",
"..........XXXXXXXXXX..........XXXXXXXXXX",
"..........XXXXXXXXXX..........XXXXXXXXXX",
"..........XXXXXXXXXX..........XXXXXXXXXX",
"..........XXXXXXXXXX..........XXXXXXXXXX",
"..........XXXXXXXXXX..........XXXXXXXXXX",
"..........XXXXXXXXXX..........XXXXXXXXXX",
"..........XXXXXXXXXX..........XXXXXXXXXX",
"..........XXXXXXXXXX..........XXXXXXXXXX",
"..........XXXXXXXXXX..........XXXXXXXXXX",
"..........XXXXXXXXXX..........XXXXXXXXXX",
"..........XXXXXXXXXX..........XXXXXXXXXX",
"..........XXXXXXXXXX..........XXXXXXXXXX",
"..........XXXXXXXXXX..........XXXXXXXXXX",
"..........XXXXXXXXXX..........XXXXXXXXXX",
"..........XXXXXXXXXX..........XXXXXXXXXX",
"..........XXXXXXXXXX..........XXXXXXXXXX",
"..........XXXXXXXXXX..........XXXXXXXXXX",
"..........XXXXXXXXXX..........XXXXXXXXXX",
"..........XXXXXXXXXX..........XXXXXXXXXX"
};
