/* XPM */
static char *result[] = {
/* columns rows colors chars-per-pixel */
"40 120 5 1 ",
"  c #009E9E",
". c #00A8A8",
"X c #00AFAF",
"o c #AA7D66",
"O c #966F5B",
/* pixels */
"          ..........XXXXXXXXXX..........",
"          ..........XXXXXXXXXX..........",
"          ..........XXXXXXXXXX..........",
"          ..........XXXXXXXXXX..........",
"          ..........XXXXXXXXXX..........",
"          ..........XXXXXXXXXX..........",
"          ..........XXXXXXXXXX..........",
"          ..........XXXXXXXXXX..........",
"          ..........XXXXXXXXXX..........",
"          ..........XXXXXXXXXX..........",
"XXXXXXXXXX..........XXXXXXXXXX          ",
"XXXXXXXXXX..........XXXXXXXXXX          ",
"XXXXXXXXXX..........XXXXXXXXXX          ",
"XXXXXXXXXX..........XXXXXXXXXX          ",
"XXXXXXXXXX..........XXXXXXXXXX          ",
"XXXXXXXXXX..........XXXXXXXXXX          ",
"XXXXXXXXXX..........XXXXXXXXXX          ",
"XXXXXXXXXX..........XXXXXXXXXX          ",
"XXXXXXXXXX..........XXXXXXXXXX          ",
"XXXXXXXXXX..........XXXXXXXXXX          ",
"..........XXXXXXXXXXXXXXXXXXXXXXXXXXXXXX",
"..........XXXXXXXXXXXXXXXXXXXXXXXXXXXXXX",
"..........XXXXXXXXXXXXXXXXXXXXXXXXXXXXXX",
"..........XXXXXXXXXXXXXXXXXXXXXXXXXXXXXX",
"..........XXXXXXXXXXXXXXXXXXXXXXXXXXXXXX",
"..........XXXXXXXXXXXXXXXXXXXXXXXXXXXXXX",
"..........XXXXXXXXXXXXXXXXXXXXXXXXXXXXXX",
"..........XXXXXXXXXXXXXXXXXXXXXXXXXXXXXX",
"..........XXXXXXXXXXXXXXXXXXXXXXXXXXXXXX",
"..........XXXXXXXXXXXXXXXXXXXXXXXXXXXXXX",
"          XXXXXXXXXXXXXXXXXXXX          ",
"          XXXXXXXXXXXXXXXXXXXX          ",
"          XXXXXXXXXXXXXXXXXXXX          ",
"          XXXXXXXXXXXXXXXXXXXX          ",
"          XXXXXXXXXXXXXXXXXXXX          ",
"          XXXXXXXXXXXXXXXXXXXX          ",
"          XXXXXXXXXXXXXXXXXXXX          ",
"          XXXXXXXXXXXXXXXXXXXX          ",
"          XXXXXXXXXXXXXXXXXXXX          ",
"          XXXXXXXXXXXXXXXXXXXX          ",
"oooooooooooooooooooooooooooooooooooooooo",
"oooooooooooooooooooooooooooooooooooooooo",
"oooooooooooooooooooooooooooooooooooooooo",
"oooooooooooooooooooooooooooooooooooooooo",
"oooooooooooooooooooooooooooooooooooooooo",
"oooooooooooooooooooooooooooooooooooooooo",
"oooooooooooooooooooooooooooooooooooooooo",
"oooooooooooooooooooooooooooooooooooooooo",
"oooooooooooooooooooooooooooooooooooooooo",
"oooooooooooooooooooooooooooooooooooooooo",
"ooooooooooOOOOOOOOOOoooooooooooooooooooo",
"ooooooooooOOOOOOOOOOoooooooooooooooooooo",
"ooooooooooOOOOOOOOOOoooooooooooooooooooo",
"ooooooooooOOOOOOOOOOoooooooooooooooooooo",
"ooooooooooOOOOOOOOOOoooooooooooooooooooo",
"ooooooooooOOOOOOOOOOoooooooooooooooooooo",
"ooooooooooOOOOOOOOOOoooooooooooooooooooo",
"ooooooooooOOOOOOOOOOoooooooooooooooooooo",
"ooooooooooOOOOOOOOOOoooooooooooooooooooo",
"ooooooooooOOOOOOOOOOoooooooooooooooooooo",
"ooooooooooOOOOOOOOOOooooooooooOOOOOOOOOO",
"ooooooooooOOOOOOOOOOooooooooooOOOOOOOOOO",
"ooooooooooOOOOOOOOOOooooooooooOOOOOOOOOO",
"ooooooooooOOOOOOOOOOooooooooooOOOOOOOOOO",
"ooooooooooOOOOOOOOOOooooooooooOOOOOOOOOO",
"ooooooooooOOOOOOOOOOooooooooooOOOOOOOOOO",
"ooooooooooOOOOOOOOOOooooooooooOOOOOOOOOO",
"ooooooooooOOOOOOOOOOooooooooooOOOOOOOOOO",
"ooooooooooOOOOOOOOOOooooooooooOOOOOOOOOO",
"ooooooooooOOOOOOOOOOooooooooooOOOOOOOOOO",
"ooooooooooooooooooooooooooooooOOOOOOOOOO",
"ooooooooooooooooooooooooooooooOOOOOOOOOO",
"ooooooooooooooooooooooooooooooOOOOOOOOOO",
"ooooooooooooooooooooooooooooooOOOOOOOOOO",
"ooooooooooooooooooooooooooooooOOOOOOOOOO",
"ooooooooooooooooooooooooooooooOOOOOOOOOO",
"ooooooooooooooooooooooooooooooOOOOOOOOOO",
"ooooooooooooooooooooooooooooooOOOOOOOOOO",
"ooooooooooooooooooooooooooooooOOOOOOOOOO",
"ooooooooooooooooooooooooooooooOOOOOOOOOO",
"ooooooooooooooooooooooooooooooOOOOOOOOOO",
"ooooooooooooooooooooooooooooooOOOOOOOOOO",
"ooooooooooooooooooooooooooooooOOOOOOOOOO",
"ooooooooooooooooooooooooooooooOOOOOOOOOO",
"ooooooooooooooooooooooooooooooOOOOOOOOOO",
"ooooooooooooooooooooooooooooooOOOOOOOOOO",
"ooooooooooooooooooooooooooooooOOOOOOOOOO",
"ooooooooooooooooooooooooooooooOOOOOOOOOO",
"ooooooooooooooooooooooooooooooOOOOOOOOOO",
"ooooooooooooooooooooooooooooooOOOOOOOOOO",
"oooooooooooooooooooooooooooooooooooooooo",
"oooooooooooooooooooooooooooooooooooooooo",
"oooooooooooooooooooooooooooooooooooooooo",
"oooooooooooooooooooooooooooooooooooooooo",
"oooooooooooooooooooooooooooooooooooooooo",
"oooooooooooooooooooooooooooooooooooooooo",
"oooooooooooooooooooooooooooooooooooooooo",
"oooooooooooooooooooooooooooooooooooooooo",
"oooooooooooooooooooooooooooooooooooooooo",
"oooooooooooooooooooooooooooooooooooooooo",
"ooooooooooooooooooooOOOOOOOOOOoooooooooo",
"ooooooooooooooooooooOOOOOOOOOOoooooooooo",
"ooooooooooooooooooooOOOOOOOOOOoooooooooo",
"ooooooooooooooooooooOOOOOOOOOOoooooooooo",
"ooooooooooooooooooooOOOOOOOOOOoooooooooo",
"ooooooooooooooooooooOOOOOOOOOOoooooooooo",
"ooooooooooooooooooooOOOOOOOOOOoooooooooo",
"ooooooooooooooooooooOOOOOOOOOOoooooooooo",
"ooooooooooooooooooooOOOOOOOOOOoooooooooo",
"ooooooooooooooooooooOOOOOOOOOOoooooooooo",
"OOOOOOOOOOooooooooooOOOOOOOOOOOOOOOOOOOO",
"OOOOOOOOOOooooooooooOOOOOOOOOOOOOOOOOOOO",
"OOOOOOOOOOooooooooooOOOOOOOOOOOOOOOOOOOO",
"OOOOOOOOOOooooooooooOOOOOOOOOOOOOOOOOOOO",
"OOOOOOOOOOooooooooooOOOOOOOOOOOOOOOOOOOO",
"OOOOOOOOOOooooooooooOOOOOOOOOOOOOOOOOOOO",
"OOOOOOOOOOooooooooooOOOOOOOOOOOOOOOOOOOO",
"OOOOOOOOOOooooooooooOOOOOOOOOOOOOOOOOOOO",
"OOOOOOOOOOooooooooooOOOOOOOOOOOOOOOOOOOO",
"OOOOOOOOOOooooooooooOOOOOOOOOOOOOOOOOOOO"
};
