/* XPM */
static char *result[] = {
/* columns rows colors chars-per-pixel */
"80 80 5 1 ",
"  c #75472F",
". c #6A4030",
"X c #865334",
"o c #232323",
"O c #522826",
/* pixels */
"                                                                                ",
"                                                                                ",
"                                                                                ",
"                                                                                ",
"                                                                                ",
"                                                                                ",
"                                                                                ",
"                                                                                ",
"                                                                                ",
"                                                                                ",
"          ..........XXXXXXXXXX..........XXXXXXXXXXXXXXXXXXXX                    ",
"          ..........XXXXXXXXXX..........XXXXXXXXXXXXXXXXXXXX                    ",
"          ..........XXXXXXXXXX..........XXXXXXXXXXXXXXXXXXXX                    ",
"          ..........XXXXXXXXXX..........XXXXXXXXXXXXXXXXXXXX                    ",
"          ..........XXXXXXXXXX..........XXXXXXXXXXXXXXXXXXXX                    ",
"          ..........XXXXXXXXXX..........XXXXXXXXXXXXXXXXXXXX                    ",
"          ..........XXXXXXXXXX..........XXXXXXXXXXXXXXXXXXXX                    ",
"          ..........XXXXXXXXXX..........XXXXXXXXXXXXXXXXXXXX                    ",
"          ..........XXXXXXXXXX..........XXXXXXXXXXXXXXXXXXXX                    ",
"          ..........XXXXXXXXXX..........XXXXXXXXXXXXXXXXXXXX                    ",
"          ..........oooooooooooooooooooooooooooooooooooooooo..........          ",
"          ..........oooooooooooooooooooooooooooooooooooooooo..........          ",
"          ..........oooooooooooooooooooooooooooooooooooooooo..........          ",
"          ..........oooooooooooooooooooooooooooooooooooooooo..........          ",
"          ..........oooooooooooooooooooooooooooooooooooooooo..........          ",
"          ..........oooooooooooooooooooooooooooooooooooooooo..........          ",
"          ..........oooooooooooooooooooooooooooooooooooooooo..........          ",
"          ..........oooooooooooooooooooooooooooooooooooooooo..........          ",
"          ..........oooooooooooooooooooooooooooooooooooooooo..........          ",
"          ..........oooooooooooooooooooooooooooooooooooooooo..........          ",
"          ..........oooooooooooooooooooooooooooooooooooooooo..........          ",
"          ..........oooooooooooooooooooooooooooooooooooooooo..........          ",
"          ..........oooooooooooooooooooooooooooooooooooooooo..........          ",
"          ..........oooooooooooooooooooooooooooooooooooooooo..........          ",
"          ..........oooooooooooooooooooooooooooooooooooooooo..........          ",
"          ..........oooooooooooooooooooooooooooooooooooooooo..........          ",
"          ..........oooooooooooooooooooooooooooooooooooooooo..........          ",
"          ..........oooooooooooooooooooooooooooooooooooooooo..........          ",
"          ..........oooooooooooooooooooooooooooooooooooooooo..........          ",
"          ..........oooooooooooooooooooooooooooooooooooooooo..........          ",
"          ..........oooooooooooooooooooooooooooooooooooooooo..........          ",
"          ..........oooooooooooooooooooooooooooooooooooooooo..........          ",
"          ..........oooooooooooooooooooooooooooooooooooooooo..........          ",
"          ..........oooooooooooooooooooooooooooooooooooooooo..........          ",
"          ..........oooooooooooooooooooooooooooooooooooooooo..........          ",
"          ..........oooooooooooooooooooooooooooooooooooooooo..........          ",
"          ..........oooooooooooooooooooooooooooooooooooooooo..........          ",
"          ..........oooooooooooooooooooooooooooooooooooooooo..........          ",
"          ..........oooooooooooooooooooooooooooooooooooooooo..........          ",
"          ..........oooooooooooooooooooooooooooooooooooooooo..........          ",
"          ..........ooooooooooooooooooooooooooooooooooooooooOOOOOOOOOO          ",
"          ..........ooooooooooooooooooooooooooooooooooooooooOOOOOOOOOO          ",
"          ..........ooooooooooooooooooooooooooooooooooooooooOOOOOOOOOO          ",
"          ..........ooooooooooooooooooooooooooooooooooooooooOOOOOOOOOO          ",
"          ..........ooooooooooooooooooooooooooooooooooooooooOOOOOOOOOO          ",
"          ..........ooooooooooooooooooooooooooooooooooooooooOOOOOOOOOO          ",
"          ..........ooooooooooooooooooooooooooooooooooooooooOOOOOOOOOO          ",
"          ..........ooooooooooooooooooooooooooooooooooooooooOOOOOOOOOO          ",
"          ..........ooooooooooooooooooooooooooooooooooooooooOOOOOOOOOO          ",
"          ..........ooooooooooooooooooooooooooooooooooooooooOOOOOOOOOO          ",
"          ............................................................          ",
"          ............................................................          ",
"          ............................................................          ",
"          ............................................................          ",
"          ............................................................          ",
"          ............................................................          ",
"          ............................................................          ",
"          ............................................................          ",
"          ............................................................          ",
"          ............................................................          ",
"                                                                                ",
"                                                                                ",
"                                                                                ",
"                                                                                ",
"                                                                                ",
"                                                                                ",
"                                                                                ",
"                                                                                ",
"                                                                                ",
"                                                                                "
};
