/* XPM */
static char *result[] = {
/* columns rows colors chars-per-pixel */
"80 80 33 1 ",
"  c #281B0A",
". c #261A0A",
"X c #271B0B",
"o c #291C0C",
"O c #322310",
"+ c #2D2010",
"@ c #2C1E0E",
"# c #2B1E0D",
"$ c #332411",
"% c #26180B",
"& c #2B1E0E",
"* c #281B0B",
"= c #24180A",
"- c #281A0D",
"; c #2D1D0E",
": c #2F2211",
"> c #261A0C",
", c #231709",
"< c #87583A",
"1 c #9C6345",
"2 c #3A2814",
"3 c #2C1E11",
"4 c #845231",
"5 c #965F41",
"6 c #885A39",
"7 c #62432F",
"8 c #9D6A4F",
"9 c #9A6344",
"0 c #865334",
"q c #75472F",
"w c #9C6748",
"e c #8A593B",
"r c #74482F",
/* pixels */
"                    ..........XXXXXXXXXXooooooooooOOOOOOOOOO++++++++++++++++++++",
"                    ..........XXXXXXXXXXooooooooooOOOOOOOOOO++++++++++++++++++++",
"                    ..........XXXXXXXXXXooooooooooOOOOOOOOOO++++++++++++++++++++",
"                    ..........XXXXXXXXXXooooooooooOOOOOOOOOO++++++++++++++++++++",
"                    ..........XXXXXXXXXXooooooooooOOOOOOOOOO++++++++++++++++++++",
"                    ..........XXXXXXXXXXooooooooooOOOOOOOOOO++++++++++++++++++++",
"                    ..........XXXXXXXXXXooooooooooOOOOOOOOOO++++++++++++++++++++",
"                    ..........XXXXXXXXXXooooooooooOOOOOOOOOO++++++++++++++++++++",
"                    ..........XXXXXXXXXXooooooooooOOOOOOOOOO++++++++++++++++++++",
"                    ..........XXXXXXXXXXooooooooooOOOOOOOOOO++++++++++++++++++++",
"                    ....................@@@@@@@@@@oooooooooo##########$$$$$$$$$$",
"                    ....................@@@@@@@@@@oooooooooo##########$$$$$$$$$$",
"                    ....................@@@@@@@@@@oooooooooo##########$$$$$$$$$$",
"                    ....................@@@@@@@@@@oooooooooo##########$$$$$$$$$$",
"                    ....................@@@@@@@@@@oooooooooo##########$$$$$$$$$$",
"                    ....................@@@@@@@@@@oooooooooo##########$$$$$$$$$$",
"                    ....................@@@@@@@@@@oooooooooo##########$$$$$$$$$$",
"                    ....................@@@@@@@@@@oooooooooo##########$$$$$$$$$$",
"                    ....................@@@@@@@@@@oooooooooo##########$$$$$$$$$$",
"                    ....................@@@@@@@@@@oooooooooo##########$$$$$$$$$$",
"@@@@@@@@@@%%%%%%%%%%..........oooooooooo&&&&&&&&&&**********==========oooooooooo",
"@@@@@@@@@@%%%%%%%%%%..........oooooooooo&&&&&&&&&&**********==========oooooooooo",
"@@@@@@@@@@%%%%%%%%%%..........oooooooooo&&&&&&&&&&**********==========oooooooooo",
"@@@@@@@@@@%%%%%%%%%%..........oooooooooo&&&&&&&&&&**********==========oooooooooo",
"@@@@@@@@@@%%%%%%%%%%..........oooooooooo&&&&&&&&&&**********==========oooooooooo",
"@@@@@@@@@@%%%%%%%%%%..........oooooooooo&&&&&&&&&&**********==========oooooooooo",
"@@@@@@@@@@%%%%%%%%%%..........oooooooooo&&&&&&&&&&**********==========oooooooooo",
"@@@@@@@@@@%%%%%%%%%%..........oooooooooo&&&&&&&&&&**********==========oooooooooo",
"@@@@@@@@@@%%%%%%%%%%..........oooooooooo&&&&&&&&&&**********==========oooooooooo",
"@@@@@@@@@@%%%%%%%%%%..........oooooooooo&&&&&&&&&&**********==========oooooooooo",
"          ----------;;;;;;;;;;@@@@@@@@@@          XXXXXXXXXX@@@@@@@@@@::::::::::",
"          ----------;;;;;;;;;;@@@@@@@@@@          XXXXXXXXXX@@@@@@@@@@::::::::::",
"          ----------;;;;;;;;;;@@@@@@@@@@          XXXXXXXXXX@@@@@@@@@@::::::::::",
"          ----------;;;;;;;;;;@@@@@@@@@@          XXXXXXXXXX@@@@@@@@@@::::::::::",
"          ----------;;;;;;;;;;@@@@@@@@@@          XXXXXXXXXX@@@@@@@@@@::::::::::",
"          ----------;;;;;;;;;;@@@@@@@@@@          XXXXXXXXXX@@@@@@@@@@::::::::::",
"          ----------;;;;;;;;;;@@@@@@@@@@          XXXXXXXXXX@@@@@@@@@@::::::::::",
"          ----------;;;;;;;;;;@@@@@@@@@@          XXXXXXXXXX@@@@@@@@@@::::::::::",
"          ----------;;;;;;;;;;@@@@@@@@@@          XXXXXXXXXX@@@@@@@@@@::::::::::",
"          ----------;;;;;;;;;;@@@@@@@@@@          XXXXXXXXXX@@@@@@@@@@::::::::::",
"                              >>>>>>>>>>,,,,,,,,,,<<<<<<<<<<11111111112222222222",
"                              >>>>>>>>>>,,,,,,,,,,<<<<<<<<<<11111111112222222222",
"                              >>>>>>>>>>,,,,,,,,,,<<<<<<<<<<11111111112222222222",
"                              >>>>>>>>>>,,,,,,,,,,<<<<<<<<<<11111111112222222222",
"                              >>>>>>>>>>,,,,,,,,,,<<<<<<<<<<11111111112222222222",
"                              >>>>>>>>>>,,,,,,,,,,<<<<<<<<<<11111111112222222222",
"                              >>>>>>>>>>,,,,,,,,,,<<<<<<<<<<11111111112222222222",
"                              >>>>>>>>>>,,,,,,,,,,<<<<<<<<<<11111111112222222222",
"                              >>>>>>>>>>,,,,,,,,,,<<<<<<<<<<11111111112222222222",
"                              >>>>>>>>>>,,,,,,,,,,<<<<<<<<<<11111111112222222222",
"                    ----------%%%%%%%%%%3333333333444444444455555555556666666666",
"                    ----------%%%%%%%%%%3333333333444444444455555555556666666666",
"                    ----------%%%%%%%%%%3333333333444444444455555555556666666666",
"                    ----------%%%%%%%%%%3333333333444444444455555555556666666666",
"                    ----------%%%%%%%%%%3333333333444444444455555555556666666666",
"                    ----------%%%%%%%%%%3333333333444444444455555555556666666666",
"                    ----------%%%%%%%%%%3333333333444444444455555555556666666666",
"                    ----------%%%%%%%%%%3333333333444444444455555555556666666666",
"                    ----------%%%%%%%%%%3333333333444444444455555555556666666666",
"                    ----------%%%%%%%%%%3333333333444444444455555555556666666666",
"@@@@@@@@@@          ;;;;;;;;;;7777777777888888888899999999990000000000qqqqqqqqqq",
"@@@@@@@@@@          ;;;;;;;;;;7777777777888888888899999999990000000000qqqqqqqqqq",
"@@@@@@@@@@          ;;;;;;;;;;7777777777888888888899999999990000000000qqqqqqqqqq",
"@@@@@@@@@@          ;;;;;;;;;;7777777777888888888899999999990000000000qqqqqqqqqq",
"@@@@@@@@@@          ;;;;;;;;;;7777777777888888888899999999990000000000qqqqqqqqqq",
"@@@@@@@@@@          ;;;;;;;;;;7777777777888888888899999999990000000000qqqqqqqqqq",
"@@@@@@@@@@          ;;;;;;;;;;7777777777888888888899999999990000000000qqqqqqqqqq",
"@@@@@@@@@@          ;;;;;;;;;;7777777777888888888899999999990000000000qqqqqqqqqq",
"@@@@@@@@@@          ;;;;;;;;;;7777777777888888888899999999990000000000qqqqqqqqqq",
"@@@@@@@@@@          ;;;;;;;;;;7777777777888888888899999999990000000000qqqqqqqqqq",
"0000000000000000000099999999990000000000wwwwwwwwww5555555555eeeeeeeeeerrrrrrrrrr",
"0000000000000000000099999999990000000000wwwwwwwwww5555555555eeeeeeeeeerrrrrrrrrr",
"0000000000000000000099999999990000000000wwwwwwwwww5555555555eeeeeeeeeerrrrrrrrrr",
"0000000000000000000099999999990000000000wwwwwwwwww5555555555eeeeeeeeeerrrrrrrrrr",
"0000000000000000000099999999990000000000wwwwwwwwww5555555555eeeeeeeeeerrrrrrrrrr",
"0000000000000000000099999999990000000000wwwwwwwwww5555555555eeeeeeeeeerrrrrrrrrr",
"0000000000000000000099999999990000000000wwwwwwwwww5555555555eeeeeeeeeerrrrrrrrrr",
"0000000000000000000099999999990000000000wwwwwwwwww5555555555eeeeeeeeeerrrrrrrrrr",
"0000000000000000000099999999990000000000wwwwwwwwww5555555555eeeeeeeeeerrrrrrrrrr",
"0000000000000000000099999999990000000000wwwwwwwwww5555555555eeeeeeeeeerrrrrrrrrr"
};
