/* XPM */
static char *result[] = {
/* columns rows colors chars-per-pixel */
"40 120 3 1 ",
"  c #302872",
". c #26215B",
"X c #3F3F3F",
/* pixels */
"          ..........                    ",
"          ..........                    ",
"          ..........                    ",
"          ..........                    ",
"          ..........                    ",
"          ..........                    ",
"          ..........                    ",
"          ..........                    ",
"          ..........                    ",
"          ..........                    ",
"          ..........                    ",
"          ..........                    ",
"          ..........                    ",
"          ..........                    ",
"          ..........                    ",
"          ..........                    ",
"          ..........                    ",
"          ..........                    ",
"          ..........                    ",
"          ..........                    ",
"          ..........                    ",
"          ..........                    ",
"          ..........                    ",
"          ..........                    ",
"          ..........                    ",
"          ..........                    ",
"          ..........                    ",
"          ..........                    ",
"          ..........                    ",
"          ..........                    ",
"          ..........                    ",
"          ..........                    ",
"          ..........                    ",
"          ..........                    ",
"          ..........                    ",
"          ..........                    ",
"          ..........                    ",
"          ..........                    ",
"          ..........                    ",
"          ..........                    ",
"                    ..........          ",
"                    ..........          ",
"                    ..........          ",
"                    ..........          ",
"                    ..........          ",
"                    ..........          ",
"                    ..........          ",
"                    ..........          ",
"                    ..........          ",
"                    ..........          ",
"          ....................          ",
"          ....................          ",
"          ....................          ",
"          ....................          ",
"          ....................          ",
"          ....................          ",
"          ....................          ",
"          ....................          ",
"          ....................          ",
"          ....................          ",
"          ..........                    ",
"          ..........                    ",
"          ..........                    ",
"          ..........                    ",
"          ..........                    ",
"          ..........                    ",
"          ..........                    ",
"          ..........                    ",
"          ..........                    ",
"          ..........                    ",
"          ..........                    ",
"          ..........                    ",
"          ..........                    ",
"          ..........                    ",
"          ..........                    ",
"          ..........                    ",
"          ..........                    ",
"          ..........                    ",
"          ..........                    ",
"          ..........                    ",
"                                        ",
"                                        ",
"                                        ",
"                                        ",
"                                        ",
"                                        ",
"                                        ",
"                                        ",
"                                        ",
"                                        ",
"                    XXXXXXXXXXXXXXXXXXXX",
"                    XXXXXXXXXXXXXXXXXXXX",
"                    XXXXXXXXXXXXXXXXXXXX",
"                    XXXXXXXXXXXXXXXXXXXX",
"                    XXXXXXXXXXXXXXXXXXXX",
"                    XXXXXXXXXXXXXXXXXXXX",
"                    XXXXXXXXXXXXXXXXXXXX",
"                    XXXXXXXXXXXXXXXXXXXX",
"                    XXXXXXXXXXXXXXXXXXXX",
"                    XXXXXXXXXXXXXXXXXXXX",
"XXXXXXXXXXXXXXXXXXXXXXXXXXXXXXXXXXXXXXXX",
"XXXXXXXXXXXXXXXXXXXXXXXXXXXXXXXXXXXXXXXX",
"XXXXXXXXXXXXXXXXXXXXXXXXXXXXXXXXXXXXXXXX",
"XXXXXXXXXXXXXXXXXXXXXXXXXXXXXXXXXXXXXXXX",
"XXXXXXXXXXXXXXXXXXXXXXXXXXXXXXXXXXXXXXXX",
"XXXXXXXXXXXXXXXXXXXXXXXXXXXXXXXXXXXXXXXX",
"XXXXXXXXXXXXXXXXXXXXXXXXXXXXXXXXXXXXXXXX",
"XXXXXXXXXXXXXXXXXXXXXXXXXXXXXXXXXXXXXXXX",
"XXXXXXXXXXXXXXXXXXXXXXXXXXXXXXXXXXXXXXXX",
"XXXXXXXXXXXXXXXXXXXXXXXXXXXXXXXXXXXXXXXX",
"XXXXXXXXXXXXXXXXXXXXXXXXXXXXXXXXXXXXXXXX",
"XXXXXXXXXXXXXXXXXXXXXXXXXXXXXXXXXXXXXXXX",
"XXXXXXXXXXXXXXXXXXXXXXXXXXXXXXXXXXXXXXXX",
"XXXXXXXXXXXXXXXXXXXXXXXXXXXXXXXXXXXXXXXX",
"XXXXXXXXXXXXXXXXXXXXXXXXXXXXXXXXXXXXXXXX",
"XXXXXXXXXXXXXXXXXXXXXXXXXXXXXXXXXXXXXXXX",
"XXXXXXXXXXXXXXXXXXXXXXXXXXXXXXXXXXXXXXXX",
"XXXXXXXXXXXXXXXXXXXXXXXXXXXXXXXXXXXXXXXX",
"XXXXXXXXXXXXXXXXXXXXXXXXXXXXXXXXXXXXXXXX",
"XXXXXXXXXXXXXXXXXXXXXXXXXXXXXXXXXXXXXXXX"
};
