/* XPM */
static char *result[] = {
/* columns rows colors chars-per-pixel */
"40 120 5 1 ",
"  c #007F7F",
". c #006868",
"X c #005B5B",
"o c #26215B",
"O c #302872",
/* pixels */
"                                        ",
"                                        ",
"                                        ",
"                                        ",
"                                        ",
"                                        ",
"                                        ",
"                                        ",
"                                        ",
"                                        ",
"          ..............................",
"          ..............................",
"          ..............................",
"          ..............................",
"          ..............................",
"          ..............................",
"          ..............................",
"          ..............................",
"          ..............................",
"          ..............................",
"........................................",
"........................................",
"........................................",
"........................................",
"........................................",
"........................................",
"........................................",
"........................................",
"........................................",
"........................................",
"XXXXXXXXXX....................XXXXXXXXXX",
"XXXXXXXXXX....................XXXXXXXXXX",
"XXXXXXXXXX....................XXXXXXXXXX",
"XXXXXXXXXX....................XXXXXXXXXX",
"XXXXXXXXXX....................XXXXXXXXXX",
"XXXXXXXXXX....................XXXXXXXXXX",
"XXXXXXXXXX....................XXXXXXXXXX",
"XXXXXXXXXX....................XXXXXXXXXX",
"XXXXXXXXXX....................XXXXXXXXXX",
"XXXXXXXXXX....................XXXXXXXXXX",
"XXXXXXXXXXXXXXXXXXXXXXXXXXXXXXXXXXXXXXXX",
"XXXXXXXXXXXXXXXXXXXXXXXXXXXXXXXXXXXXXXXX",
"XXXXXXXXXXXXXXXXXXXXXXXXXXXXXXXXXXXXXXXX",
"XXXXXXXXXXXXXXXXXXXXXXXXXXXXXXXXXXXXXXXX",
"XXXXXXXXXXXXXXXXXXXXXXXXXXXXXXXXXXXXXXXX",
"XXXXXXXXXXXXXXXXXXXXXXXXXXXXXXXXXXXXXXXX",
"XXXXXXXXXXXXXXXXXXXXXXXXXXXXXXXXXXXXXXXX",
"XXXXXXXXXXXXXXXXXXXXXXXXXXXXXXXXXXXXXXXX",
"XXXXXXXXXXXXXXXXXXXXXXXXXXXXXXXXXXXXXXXX",
"XXXXXXXXXXXXXXXXXXXXXXXXXXXXXXXXXXXXXXXX",
"..........XXXXXXXXXXXXXXXXXXXX..........",
"..........XXXXXXXXXXXXXXXXXXXX..........",
"..........XXXXXXXXXXXXXXXXXXXX..........",
"..........XXXXXXXXXXXXXXXXXXXX..........",
"..........XXXXXXXXXXXXXXXXXXXX..........",
"..........XXXXXXXXXXXXXXXXXXXX..........",
"..........XXXXXXXXXXXXXXXXXXXX..........",
"..........XXXXXXXXXXXXXXXXXXXX..........",
"..........XXXXXXXXXXXXXXXXXXXX..........",
"..........XXXXXXXXXXXXXXXXXXXX..........",
"..........XXXXXXXXXX....................",
"..........XXXXXXXXXX....................",
"..........XXXXXXXXXX....................",
"..........XXXXXXXXXX....................",
"..........XXXXXXXXXX....................",
"..........XXXXXXXXXX....................",
"..........XXXXXXXXXX....................",
"..........XXXXXXXXXX....................",
"..........XXXXXXXXXX....................",
"..........XXXXXXXXXX....................",
"          ..............................",
"          ..............................",
"          ..............................",
"          ..............................",
"          ..............................",
"          ..............................",
"          ..............................",
"          ..............................",
"          ..............................",
"          ..............................",
"          ....................          ",
"          ....................          ",
"          ....................          ",
"          ....................          ",
"          ....................          ",
"          ....................          ",
"          ....................          ",
"          ....................          ",
"          ....................          ",
"          ....................          ",
"          ....................          ",
"          ....................          ",
"          ....................          ",
"          ....................          ",
"          ....................          ",
"          ....................          ",
"          ....................          ",
"          ....................          ",
"          ....................          ",
"          ....................          ",
"          ooooooooooooooooooooOOOOOOOOOO",
"          ooooooooooooooooooooOOOOOOOOOO",
"          ooooooooooooooooooooOOOOOOOOOO",
"          ooooooooooooooooooooOOOOOOOOOO",
"          ooooooooooooooooooooOOOOOOOOOO",
"          ooooooooooooooooooooOOOOOOOOOO",
"          ooooooooooooooooooooOOOOOOOOOO",
"          ooooooooooooooooooooOOOOOOOOOO",
"          ooooooooooooooooooooOOOOOOOOOO",
"          ooooooooooooooooooooOOOOOOOOOO",
"OOOOOOOOOOooooooooooOOOOOOOOOOOOOOOOOOOO",
"OOOOOOOOOOooooooooooOOOOOOOOOOOOOOOOOOOO",
"OOOOOOOOOOooooooooooOOOOOOOOOOOOOOOOOOOO",
"OOOOOOOOOOooooooooooOOOOOOOOOOOOOOOOOOOO",
"OOOOOOOOOOooooooooooOOOOOOOOOOOOOOOOOOOO",
"OOOOOOOOOOooooooooooOOOOOOOOOOOOOOOOOOOO",
"OOOOOOOOOOooooooooooOOOOOOOOOOOOOOOOOOOO",
"OOOOOOOOOOooooooooooOOOOOOOOOOOOOOOOOOOO",
"OOOOOOOOOOooooooooooOOOOOOOOOOOOOOOOOOOO",
"OOOOOOOOOOooooooooooOOOOOOOOOOOOOOOOOOOO"
};
