/* XPM */
static char *result[] = {
/* columns rows colors chars-per-pixel */
"80 120 8 1 ",
"  c #009999",
". c #009E9E",
"X c #815339",
"o c #A26A47",
"O c #00A8A8",
"+ c #00AFAF",
"@ c #463AA5",
"# c #3A3189",
/* pixels */
"          ..........XXXXXXXXXXooooooooooXXXXXXXXXXXXXXXXXXXX....................",
"          ..........XXXXXXXXXXooooooooooXXXXXXXXXXXXXXXXXXXX....................",
"          ..........XXXXXXXXXXooooooooooXXXXXXXXXXXXXXXXXXXX....................",
"          ..........XXXXXXXXXXooooooooooXXXXXXXXXXXXXXXXXXXX....................",
"          ..........XXXXXXXXXXooooooooooXXXXXXXXXXXXXXXXXXXX....................",
"          ..........XXXXXXXXXXooooooooooXXXXXXXXXXXXXXXXXXXX....................",
"          ..........XXXXXXXXXXooooooooooXXXXXXXXXXXXXXXXXXXX....................",
"          ..........XXXXXXXXXXooooooooooXXXXXXXXXXXXXXXXXXXX....................",
"          ..........XXXXXXXXXXooooooooooXXXXXXXXXXXXXXXXXXXX....................",
"          ..........XXXXXXXXXXooooooooooXXXXXXXXXXXXXXXXXXXX....................",
"OOOOOOOOOOOOOOOOOOOO..........XXXXXXXXXXXXXXXXXXXX..........++++++++++++++++++++",
"OOOOOOOOOOOOOOOOOOOO..........XXXXXXXXXXXXXXXXXXXX..........++++++++++++++++++++",
"OOOOOOOOOOOOOOOOOOOO..........XXXXXXXXXXXXXXXXXXXX..........++++++++++++++++++++",
"OOOOOOOOOOOOOOOOOOOO..........XXXXXXXXXXXXXXXXXXXX..........++++++++++++++++++++",
"OOOOOOOOOOOOOOOOOOOO..........XXXXXXXXXXXXXXXXXXXX..........++++++++++++++++++++",
"OOOOOOOOOOOOOOOOOOOO..........XXXXXXXXXXXXXXXXXXXX..........++++++++++++++++++++",
"OOOOOOOOOOOOOOOOOOOO..........XXXXXXXXXXXXXXXXXXXX..........++++++++++++++++++++",
"OOOOOOOOOOOOOOOOOOOO..........XXXXXXXXXXXXXXXXXXXX..........++++++++++++++++++++",
"OOOOOOOOOOOOOOOOOOOO..........XXXXXXXXXXXXXXXXXXXX..........++++++++++++++++++++",
"OOOOOOOOOOOOOOOOOOOO..........XXXXXXXXXXXXXXXXXXXX..........++++++++++++++++++++",
"++++++++++++++++++++OOOOOOOOOO..........          OOOOOOOOOO++++++++++++++++++++",
"++++++++++++++++++++OOOOOOOOOO..........          OOOOOOOOOO++++++++++++++++++++",
"++++++++++++++++++++OOOOOOOOOO..........          OOOOOOOOOO++++++++++++++++++++",
"++++++++++++++++++++OOOOOOOOOO..........          OOOOOOOOOO++++++++++++++++++++",
"++++++++++++++++++++OOOOOOOOOO..........          OOOOOOOOOO++++++++++++++++++++",
"++++++++++++++++++++OOOOOOOOOO..........          OOOOOOOOOO++++++++++++++++++++",
"++++++++++++++++++++OOOOOOOOOO..........          OOOOOOOOOO++++++++++++++++++++",
"++++++++++++++++++++OOOOOOOOOO..........          OOOOOOOOOO++++++++++++++++++++",
"++++++++++++++++++++OOOOOOOOOO..........          OOOOOOOOOO++++++++++++++++++++",
"++++++++++++++++++++OOOOOOOOOO..........          OOOOOOOOOO++++++++++++++++++++",
"++++++++++++++++++++++++++++++..........          ++++++++++++++++++++++++++++++",
"++++++++++++++++++++++++++++++..........          ++++++++++++++++++++++++++++++",
"++++++++++++++++++++++++++++++..........          ++++++++++++++++++++++++++++++",
"++++++++++++++++++++++++++++++..........          ++++++++++++++++++++++++++++++",
"++++++++++++++++++++++++++++++..........          ++++++++++++++++++++++++++++++",
"++++++++++++++++++++++++++++++..........          ++++++++++++++++++++++++++++++",
"++++++++++++++++++++++++++++++..........          ++++++++++++++++++++++++++++++",
"++++++++++++++++++++++++++++++..........          ++++++++++++++++++++++++++++++",
"++++++++++++++++++++++++++++++..........          ++++++++++++++++++++++++++++++",
"++++++++++++++++++++++++++++++..........          ++++++++++++++++++++++++++++++",
"                    ++++++++++++++++++++          ++++++++++                    ",
"                    ++++++++++++++++++++          ++++++++++                    ",
"                    ++++++++++++++++++++          ++++++++++                    ",
"                    ++++++++++++++++++++          ++++++++++                    ",
"                    ++++++++++++++++++++          ++++++++++                    ",
"                    ++++++++++++++++++++          ++++++++++                    ",
"                    ++++++++++++++++++++          ++++++++++                    ",
"                    ++++++++++++++++++++          ++++++++++                    ",
"                    ++++++++++++++++++++          ++++++++++                    ",
"                    ++++++++++++++++++++          ++++++++++                    ",
"                    ++++++++++OOOOOOOOOO          ++++++++++OOOOOOOOOO          ",
"                    ++++++++++OOOOOOOOOO          ++++++++++OOOOOOOOOO          ",
"                    ++++++++++OOOOOOOOOO          ++++++++++OOOOOOOOOO          ",
"                    ++++++++++OOOOOOOOOO          ++++++++++OOOOOOOOOO          ",
"                    ++++++++++OOOOOOOOOO          ++++++++++OOOOOOOOOO          ",
"                    ++++++++++OOOOOOOOOO          ++++++++++OOOOOOOOOO          ",
"                    ++++++++++OOOOOOOOOO          ++++++++++OOOOOOOOOO          ",
"                    ++++++++++OOOOOOOOOO          ++++++++++OOOOOOOOOO          ",
"                    ++++++++++OOOOOOOOOO          ++++++++++OOOOOOOOOO          ",
"                    ++++++++++OOOOOOOOOO          ++++++++++OOOOOOOOOO          ",
"          ++++++++++++++++++++          OOOOOOOOOO++++++++++OOOOOOOOOO          ",
"          ++++++++++++++++++++          OOOOOOOOOO++++++++++OOOOOOOOOO          ",
"          ++++++++++++++++++++          OOOOOOOOOO++++++++++OOOOOOOOOO          ",
"          ++++++++++++++++++++          OOOOOOOOOO++++++++++OOOOOOOOOO          ",
"          ++++++++++++++++++++          OOOOOOOOOO++++++++++OOOOOOOOOO          ",
"          ++++++++++++++++++++          OOOOOOOOOO++++++++++OOOOOOOOOO          ",
"          ++++++++++++++++++++          OOOOOOOOOO++++++++++OOOOOOOOOO          ",
"          ++++++++++++++++++++          OOOOOOOOOO++++++++++OOOOOOOOOO          ",
"          ++++++++++++++++++++          OOOOOOOOOO++++++++++OOOOOOOOOO          ",
"          ++++++++++++++++++++          OOOOOOOOOO++++++++++OOOOOOOOOO          ",
"          ++++++++++++++++++++          OOOOOOOOOO++++++++++OOOOOOOOOO          ",
"          ++++++++++++++++++++          OOOOOOOOOO++++++++++OOOOOOOOOO          ",
"          ++++++++++++++++++++          OOOOOOOOOO++++++++++OOOOOOOOOO          ",
"          ++++++++++++++++++++          OOOOOOOOOO++++++++++OOOOOOOOOO          ",
"          ++++++++++++++++++++          OOOOOOOOOO++++++++++OOOOOOOOOO          ",
"          ++++++++++++++++++++          OOOOOOOOOO++++++++++OOOOOOOOOO          ",
"          ++++++++++++++++++++          OOOOOOOOOO++++++++++OOOOOOOOOO          ",
"          ++++++++++++++++++++          OOOOOOOOOO++++++++++OOOOOOOOOO          ",
"          ++++++++++++++++++++          OOOOOOOOOO++++++++++OOOOOOOOOO          ",
"          ++++++++++++++++++++          OOOOOOOOOO++++++++++OOOOOOOOOO          ",
"++++++++++++++++++++++++++++++          OOOOOOOOOO++++++++++++++++++++          ",
"++++++++++++++++++++++++++++++          OOOOOOOOOO++++++++++++++++++++          ",
"++++++++++++++++++++++++++++++          OOOOOOOOOO++++++++++++++++++++          ",
"++++++++++++++++++++++++++++++          OOOOOOOOOO++++++++++++++++++++          ",
"++++++++++++++++++++++++++++++          OOOOOOOOOO++++++++++++++++++++          ",
"++++++++++++++++++++++++++++++          OOOOOOOOOO++++++++++++++++++++          ",
"++++++++++++++++++++++++++++++          OOOOOOOOOO++++++++++++++++++++          ",
"++++++++++++++++++++++++++++++          OOOOOOOOOO++++++++++++++++++++          ",
"++++++++++++++++++++++++++++++          OOOOOOOOOO++++++++++++++++++++          ",
"++++++++++++++++++++++++++++++          OOOOOOOOOO++++++++++++++++++++          ",
"                              OOOOOOOOOO++++++++++OOOOOOOOOO++++++++++          ",
"                              OOOOOOOOOO++++++++++OOOOOOOOOO++++++++++          ",
"                              OOOOOOOOOO++++++++++OOOOOOOOOO++++++++++          ",
"                              OOOOOOOOOO++++++++++OOOOOOOOOO++++++++++          ",
"                              OOOOOOOOOO++++++++++OOOOOOOOOO++++++++++          ",
"                              OOOOOOOOOO++++++++++OOOOOOOOOO++++++++++          ",
"                              OOOOOOOOOO++++++++++OOOOOOOOOO++++++++++          ",
"                              OOOOOOOOOO++++++++++OOOOOOOOOO++++++++++          ",
"                              OOOOOOOOOO++++++++++OOOOOOOOOO++++++++++          ",
"                              OOOOOOOOOO++++++++++OOOOOOOOOO++++++++++          ",
"@@@@@@@@@@@@@@@@@@@@@@@@@@@@@@@@@@@@@@@@@@@@@@@@@@##########++++++++++          ",
"@@@@@@@@@@@@@@@@@@@@@@@@@@@@@@@@@@@@@@@@@@@@@@@@@@##########++++++++++          ",
"@@@@@@@@@@@@@@@@@@@@@@@@@@@@@@@@@@@@@@@@@@@@@@@@@@##########++++++++++          ",
"@@@@@@@@@@@@@@@@@@@@@@@@@@@@@@@@@@@@@@@@@@@@@@@@@@##########++++++++++          ",
"@@@@@@@@@@@@@@@@@@@@@@@@@@@@@@@@@@@@@@@@@@@@@@@@@@##########++++++++++          ",
"@@@@@@@@@@@@@@@@@@@@@@@@@@@@@@@@@@@@@@@@@@@@@@@@@@##########++++++++++          ",
"@@@@@@@@@@@@@@@@@@@@@@@@@@@@@@@@@@@@@@@@@@@@@@@@@@##########++++++++++          ",
"@@@@@@@@@@@@@@@@@@@@@@@@@@@@@@@@@@@@@@@@@@@@@@@@@@##########++++++++++          ",
"@@@@@@@@@@@@@@@@@@@@@@@@@@@@@@@@@@@@@@@@@@@@@@@@@@##########++++++++++          ",
"@@@@@@@@@@@@@@@@@@@@@@@@@@@@@@@@@@@@@@@@@@@@@@@@@@##########++++++++++          ",
"@@@@@@@@@@@@@@@@@@@@@@@@@@@@@@@@@@@@@@@@@@@@@@@@@@@@@@@@@@@@##########          ",
"@@@@@@@@@@@@@@@@@@@@@@@@@@@@@@@@@@@@@@@@@@@@@@@@@@@@@@@@@@@@##########          ",
"@@@@@@@@@@@@@@@@@@@@@@@@@@@@@@@@@@@@@@@@@@@@@@@@@@@@@@@@@@@@##########          ",
"@@@@@@@@@@@@@@@@@@@@@@@@@@@@@@@@@@@@@@@@@@@@@@@@@@@@@@@@@@@@##########          ",
"@@@@@@@@@@@@@@@@@@@@@@@@@@@@@@@@@@@@@@@@@@@@@@@@@@@@@@@@@@@@##########          ",
"@@@@@@@@@@@@@@@@@@@@@@@@@@@@@@@@@@@@@@@@@@@@@@@@@@@@@@@@@@@@##########          ",
"@@@@@@@@@@@@@@@@@@@@@@@@@@@@@@@@@@@@@@@@@@@@@@@@@@@@@@@@@@@@##########          ",
"@@@@@@@@@@@@@@@@@@@@@@@@@@@@@@@@@@@@@@@@@@@@@@@@@@@@@@@@@@@@##########          ",
"@@@@@@@@@@@@@@@@@@@@@@@@@@@@@@@@@@@@@@@@@@@@@@@@@@@@@@@@@@@@##########          ",
"@@@@@@@@@@@@@@@@@@@@@@@@@@@@@@@@@@@@@@@@@@@@@@@@@@@@@@@@@@@@##########          "
};
