/* XPM */
static char *result[] = {
/* columns rows colors chars-per-pixel */
"40 120 5 1 ",
"  c #007F7F",
". c #005B5B",
"X c #006868",
"o c #302872",
"O c #26215B",
/* pixels */
"                              ..........",
"                              ..........",
"                              ..........",
"                              ..........",
"                              ..........",
"                              ..........",
"                              ..........",
"                              ..........",
"                              ..........",
"                              ..........",
"          XXXXXXXXXXXXXXXXXXXX          ",
"          XXXXXXXXXXXXXXXXXXXX          ",
"          XXXXXXXXXXXXXXXXXXXX          ",
"          XXXXXXXXXXXXXXXXXXXX          ",
"          XXXXXXXXXXXXXXXXXXXX          ",
"          XXXXXXXXXXXXXXXXXXXX          ",
"          XXXXXXXXXXXXXXXXXXXX          ",
"          XXXXXXXXXXXXXXXXXXXX          ",
"          XXXXXXXXXXXXXXXXXXXX          ",
"          XXXXXXXXXXXXXXXXXXXX          ",
"XXXXXXXXXXXXXXXXXXXXXXXXXXXXXX          ",
"XXXXXXXXXXXXXXXXXXXXXXXXXXXXXX          ",
"XXXXXXXXXXXXXXXXXXXXXXXXXXXXXX          ",
"XXXXXXXXXXXXXXXXXXXXXXXXXXXXXX          ",
"XXXXXXXXXXXXXXXXXXXXXXXXXXXXXX          ",
"XXXXXXXXXXXXXXXXXXXXXXXXXXXXXX          ",
"XXXXXXXXXXXXXXXXXXXXXXXXXXXXXX          ",
"XXXXXXXXXXXXXXXXXXXXXXXXXXXXXX          ",
"XXXXXXXXXXXXXXXXXXXXXXXXXXXXXX          ",
"XXXXXXXXXXXXXXXXXXXXXXXXXXXXXX          ",
"..........XXXXXXXXXXXXXXXXXXXX..........",
"..........XXXXXXXXXXXXXXXXXXXX..........",
"..........XXXXXXXXXXXXXXXXXXXX..........",
"..........XXXXXXXXXXXXXXXXXXXX..........",
"..........XXXXXXXXXXXXXXXXXXXX..........",
"..........XXXXXXXXXXXXXXXXXXXX..........",
"..........XXXXXXXXXXXXXXXXXXXX..........",
"..........XXXXXXXXXXXXXXXXXXXX..........",
"..........XXXXXXXXXXXXXXXXXXXX..........",
"..........XXXXXXXXXXXXXXXXXXXX..........",
"XXXXXXXXXX..............................",
"XXXXXXXXXX..............................",
"XXXXXXXXXX..............................",
"XXXXXXXXXX..............................",
"XXXXXXXXXX..............................",
"XXXXXXXXXX..............................",
"XXXXXXXXXX..............................",
"XXXXXXXXXX..............................",
"XXXXXXXXXX..............................",
"XXXXXXXXXX..............................",
"..............................XXXXXXXXXX",
"..............................XXXXXXXXXX",
"..............................XXXXXXXXXX",
"..............................XXXXXXXXXX",
"..............................XXXXXXXXXX",
"..............................XXXXXXXXXX",
"..............................XXXXXXXXXX",
"..............................XXXXXXXXXX",
"..............................XXXXXXXXXX",
"..............................XXXXXXXXXX",
"XXXXXXXXXX....................XXXXXXXXXX",
"XXXXXXXXXX....................XXXXXXXXXX",
"XXXXXXXXXX....................XXXXXXXXXX",
"XXXXXXXXXX....................XXXXXXXXXX",
"XXXXXXXXXX....................XXXXXXXXXX",
"XXXXXXXXXX....................XXXXXXXXXX",
"XXXXXXXXXX....................XXXXXXXXXX",
"XXXXXXXXXX....................XXXXXXXXXX",
"XXXXXXXXXX....................XXXXXXXXXX",
"XXXXXXXXXX....................XXXXXXXXXX",
"          XXXXXXXXXXXXXXXXXXXX          ",
"          XXXXXXXXXXXXXXXXXXXX          ",
"          XXXXXXXXXXXXXXXXXXXX          ",
"          XXXXXXXXXXXXXXXXXXXX          ",
"          XXXXXXXXXXXXXXXXXXXX          ",
"          XXXXXXXXXXXXXXXXXXXX          ",
"          XXXXXXXXXXXXXXXXXXXX          ",
"          XXXXXXXXXXXXXXXXXXXX          ",
"          XXXXXXXXXXXXXXXXXXXX          ",
"          XXXXXXXXXXXXXXXXXXXX          ",
"          XXXXXXXXXXXXXXXXXXXX          ",
"          XXXXXXXXXXXXXXXXXXXX          ",
"          XXXXXXXXXXXXXXXXXXXX          ",
"          XXXXXXXXXXXXXXXXXXXX          ",
"          XXXXXXXXXXXXXXXXXXXX          ",
"          XXXXXXXXXXXXXXXXXXXX          ",
"          XXXXXXXXXXXXXXXXXXXX          ",
"          XXXXXXXXXXXXXXXXXXXX          ",
"          XXXXXXXXXXXXXXXXXXXX          ",
"          XXXXXXXXXXXXXXXXXXXX          ",
"          XXXXXXXXXX                    ",
"          XXXXXXXXXX                    ",
"          XXXXXXXXXX                    ",
"          XXXXXXXXXX                    ",
"          XXXXXXXXXX                    ",
"          XXXXXXXXXX                    ",
"          XXXXXXXXXX                    ",
"          XXXXXXXXXX                    ",
"          XXXXXXXXXX                    ",
"          XXXXXXXXXX                    ",
"ooooooooooOOOOOOOOOOooooooooooOOOOOOOOOO",
"ooooooooooOOOOOOOOOOooooooooooOOOOOOOOOO",
"ooooooooooOOOOOOOOOOooooooooooOOOOOOOOOO",
"ooooooooooOOOOOOOOOOooooooooooOOOOOOOOOO",
"ooooooooooOOOOOOOOOOooooooooooOOOOOOOOOO",
"ooooooooooOOOOOOOOOOooooooooooOOOOOOOOOO",
"ooooooooooOOOOOOOOOOooooooooooOOOOOOOOOO",
"ooooooooooOOOOOOOOOOooooooooooOOOOOOOOOO",
"ooooooooooOOOOOOOOOOooooooooooOOOOOOOOOO",
"ooooooooooOOOOOOOOOOooooooooooOOOOOOOOOO",
"ooooooooooOOOOOOOOOOoooooooooooooooooooo",
"ooooooooooOOOOOOOOOOoooooooooooooooooooo",
"ooooooooooOOOOOOOOOOoooooooooooooooooooo",
"ooooooooooOOOOOOOOOOoooooooooooooooooooo",
"ooooooooooOOOOOOOOOOoooooooooooooooooooo",
"ooooooooooOOOOOOOOOOoooooooooooooooooooo",
"ooooooooooOOOOOOOOOOoooooooooooooooooooo",
"ooooooooooOOOOOOOOOOoooooooooooooooooooo",
"ooooooooooOOOOOOOOOOoooooooooooooooooooo",
"ooooooooooOOOOOOOOOOoooooooooooooooooooo"
};
