/* XPM */
static char *result[] = {
/* columns rows colors chars-per-pixel */
"80 120 6 1 ",
"  c #009E9E",
". c #00A8A8",
"X c #00AFAF",
"o c #009999",
"O c #463AA5",
"+ c #3A3189",
/* pixels */
"          ..............................XXXXXXXXXXXXXXXXXXXX....................",
"          ..............................XXXXXXXXXXXXXXXXXXXX....................",
"          ..............................XXXXXXXXXXXXXXXXXXXX....................",
"          ..............................XXXXXXXXXXXXXXXXXXXX....................",
"          ..............................XXXXXXXXXXXXXXXXXXXX....................",
"          ..............................XXXXXXXXXXXXXXXXXXXX....................",
"          ..............................XXXXXXXXXXXXXXXXXXXX....................",
"          ..............................XXXXXXXXXXXXXXXXXXXX....................",
"          ..............................XXXXXXXXXXXXXXXXXXXX....................",
"          ..............................XXXXXXXXXXXXXXXXXXXX....................",
"..........XXXXXXXXXXXXXXXXXXXXXXXXXXXXXXXXXXXXXXXXXXXXXXXXXX....................",
"..........XXXXXXXXXXXXXXXXXXXXXXXXXXXXXXXXXXXXXXXXXXXXXXXXXX....................",
"..........XXXXXXXXXXXXXXXXXXXXXXXXXXXXXXXXXXXXXXXXXXXXXXXXXX....................",
"..........XXXXXXXXXXXXXXXXXXXXXXXXXXXXXXXXXXXXXXXXXXXXXXXXXX....................",
"..........XXXXXXXXXXXXXXXXXXXXXXXXXXXXXXXXXXXXXXXXXXXXXXXXXX....................",
"..........XXXXXXXXXXXXXXXXXXXXXXXXXXXXXXXXXXXXXXXXXXXXXXXXXX....................",
"..........XXXXXXXXXXXXXXXXXXXXXXXXXXXXXXXXXXXXXXXXXXXXXXXXXX....................",
"..........XXXXXXXXXXXXXXXXXXXXXXXXXXXXXXXXXXXXXXXXXXXXXXXXXX....................",
"..........XXXXXXXXXXXXXXXXXXXXXXXXXXXXXXXXXXXXXXXXXXXXXXXXXX....................",
"..........XXXXXXXXXXXXXXXXXXXXXXXXXXXXXXXXXXXXXXXXXXXXXXXXXX....................",
"XXXXXXXXXXXXXXXXXXXXXXXXXXXXXXXXXXXXXXXXXXXXXXXXXXXXXXXXXXXXXXXXXXXXXX..........",
"XXXXXXXXXXXXXXXXXXXXXXXXXXXXXXXXXXXXXXXXXXXXXXXXXXXXXXXXXXXXXXXXXXXXXX..........",
"XXXXXXXXXXXXXXXXXXXXXXXXXXXXXXXXXXXXXXXXXXXXXXXXXXXXXXXXXXXXXXXXXXXXXX..........",
"XXXXXXXXXXXXXXXXXXXXXXXXXXXXXXXXXXXXXXXXXXXXXXXXXXXXXXXXXXXXXXXXXXXXXX..........",
"XXXXXXXXXXXXXXXXXXXXXXXXXXXXXXXXXXXXXXXXXXXXXXXXXXXXXXXXXXXXXXXXXXXXXX..........",
"XXXXXXXXXXXXXXXXXXXXXXXXXXXXXXXXXXXXXXXXXXXXXXXXXXXXXXXXXXXXXXXXXXXXXX..........",
"XXXXXXXXXXXXXXXXXXXXXXXXXXXXXXXXXXXXXXXXXXXXXXXXXXXXXXXXXXXXXXXXXXXXXX..........",
"XXXXXXXXXXXXXXXXXXXXXXXXXXXXXXXXXXXXXXXXXXXXXXXXXXXXXXXXXXXXXXXXXXXXXX..........",
"XXXXXXXXXXXXXXXXXXXXXXXXXXXXXXXXXXXXXXXXXXXXXXXXXXXXXXXXXXXXXXXXXXXXXX..........",
"XXXXXXXXXXXXXXXXXXXXXXXXXXXXXXXXXXXXXXXXXXXXXXXXXXXXXXXXXXXXXXXXXXXXXX..........",
"XXXXXXXXXXXXXXXXXXXXooooooooooXXXXXXXXXX..........ooooooooooXXXXXXXXXX..........",
"XXXXXXXXXXXXXXXXXXXXooooooooooXXXXXXXXXX..........ooooooooooXXXXXXXXXX..........",
"XXXXXXXXXXXXXXXXXXXXooooooooooXXXXXXXXXX..........ooooooooooXXXXXXXXXX..........",
"XXXXXXXXXXXXXXXXXXXXooooooooooXXXXXXXXXX..........ooooooooooXXXXXXXXXX..........",
"XXXXXXXXXXXXXXXXXXXXooooooooooXXXXXXXXXX..........ooooooooooXXXXXXXXXX..........",
"XXXXXXXXXXXXXXXXXXXXooooooooooXXXXXXXXXX..........ooooooooooXXXXXXXXXX..........",
"XXXXXXXXXXXXXXXXXXXXooooooooooXXXXXXXXXX..........ooooooooooXXXXXXXXXX..........",
"XXXXXXXXXXXXXXXXXXXXooooooooooXXXXXXXXXX..........ooooooooooXXXXXXXXXX..........",
"XXXXXXXXXXXXXXXXXXXXooooooooooXXXXXXXXXX..........ooooooooooXXXXXXXXXX..........",
"XXXXXXXXXXXXXXXXXXXXooooooooooXXXXXXXXXX..........ooooooooooXXXXXXXXXX..........",
"XXXXXXXXXX..........ooooooooooXXXXXXXXXX..........ooooooooooXXXXXXXXXXXXXXXXXXXX",
"XXXXXXXXXX..........ooooooooooXXXXXXXXXX..........ooooooooooXXXXXXXXXXXXXXXXXXXX",
"XXXXXXXXXX..........ooooooooooXXXXXXXXXX..........ooooooooooXXXXXXXXXXXXXXXXXXXX",
"XXXXXXXXXX..........ooooooooooXXXXXXXXXX..........ooooooooooXXXXXXXXXXXXXXXXXXXX",
"XXXXXXXXXX..........ooooooooooXXXXXXXXXX..........ooooooooooXXXXXXXXXXXXXXXXXXXX",
"XXXXXXXXXX..........ooooooooooXXXXXXXXXX..........ooooooooooXXXXXXXXXXXXXXXXXXXX",
"XXXXXXXXXX..........ooooooooooXXXXXXXXXX..........ooooooooooXXXXXXXXXXXXXXXXXXXX",
"XXXXXXXXXX..........ooooooooooXXXXXXXXXX..........ooooooooooXXXXXXXXXXXXXXXXXXXX",
"XXXXXXXXXX..........ooooooooooXXXXXXXXXX..........ooooooooooXXXXXXXXXXXXXXXXXXXX",
"XXXXXXXXXX..........ooooooooooXXXXXXXXXX..........ooooooooooXXXXXXXXXXXXXXXXXXXX",
"XXXXXXXXXXooooooooooooooooooooXXXXXXXXXX..........oooooooooo..........XXXXXXXXXX",
"XXXXXXXXXXooooooooooooooooooooXXXXXXXXXX..........oooooooooo..........XXXXXXXXXX",
"XXXXXXXXXXooooooooooooooooooooXXXXXXXXXX..........oooooooooo..........XXXXXXXXXX",
"XXXXXXXXXXooooooooooooooooooooXXXXXXXXXX..........oooooooooo..........XXXXXXXXXX",
"XXXXXXXXXXooooooooooooooooooooXXXXXXXXXX..........oooooooooo..........XXXXXXXXXX",
"XXXXXXXXXXooooooooooooooooooooXXXXXXXXXX..........oooooooooo..........XXXXXXXXXX",
"XXXXXXXXXXooooooooooooooooooooXXXXXXXXXX..........oooooooooo..........XXXXXXXXXX",
"XXXXXXXXXXooooooooooooooooooooXXXXXXXXXX..........oooooooooo..........XXXXXXXXXX",
"XXXXXXXXXXooooooooooooooooooooXXXXXXXXXX..........oooooooooo..........XXXXXXXXXX",
"XXXXXXXXXXooooooooooooooooooooXXXXXXXXXX..........oooooooooo..........XXXXXXXXXX",
"XXXXXXXXXX..........oooooooooo..........XXXXXXXXXXooooooooooooooooooooXXXXXXXXXX",
"XXXXXXXXXX..........oooooooooo..........XXXXXXXXXXooooooooooooooooooooXXXXXXXXXX",
"XXXXXXXXXX..........oooooooooo..........XXXXXXXXXXooooooooooooooooooooXXXXXXXXXX",
"XXXXXXXXXX..........oooooooooo..........XXXXXXXXXXooooooooooooooooooooXXXXXXXXXX",
"XXXXXXXXXX..........oooooooooo..........XXXXXXXXXXooooooooooooooooooooXXXXXXXXXX",
"XXXXXXXXXX..........oooooooooo..........XXXXXXXXXXooooooooooooooooooooXXXXXXXXXX",
"XXXXXXXXXX..........oooooooooo..........XXXXXXXXXXooooooooooooooooooooXXXXXXXXXX",
"XXXXXXXXXX..........oooooooooo..........XXXXXXXXXXooooooooooooooooooooXXXXXXXXXX",
"XXXXXXXXXX..........oooooooooo..........XXXXXXXXXXooooooooooooooooooooXXXXXXXXXX",
"XXXXXXXXXX..........oooooooooo..........XXXXXXXXXXooooooooooooooooooooXXXXXXXXXX",
"XXXXXXXXXXXXXXXXXXXXoooooooooo..........XXXXXXXXXXooooooooooooooooooooXXXXXXXXXX",
"XXXXXXXXXXXXXXXXXXXXoooooooooo..........XXXXXXXXXXooooooooooooooooooooXXXXXXXXXX",
"XXXXXXXXXXXXXXXXXXXXoooooooooo..........XXXXXXXXXXooooooooooooooooooooXXXXXXXXXX",
"XXXXXXXXXXXXXXXXXXXXoooooooooo..........XXXXXXXXXXooooooooooooooooooooXXXXXXXXXX",
"XXXXXXXXXXXXXXXXXXXXoooooooooo..........XXXXXXXXXXooooooooooooooooooooXXXXXXXXXX",
"XXXXXXXXXXXXXXXXXXXXoooooooooo..........XXXXXXXXXXooooooooooooooooooooXXXXXXXXXX",
"XXXXXXXXXXXXXXXXXXXXoooooooooo..........XXXXXXXXXXooooooooooooooooooooXXXXXXXXXX",
"XXXXXXXXXXXXXXXXXXXXoooooooooo..........XXXXXXXXXXooooooooooooooooooooXXXXXXXXXX",
"XXXXXXXXXXXXXXXXXXXXoooooooooo..........XXXXXXXXXXooooooooooooooooooooXXXXXXXXXX",
"XXXXXXXXXXXXXXXXXXXXoooooooooo..........XXXXXXXXXXooooooooooooooooooooXXXXXXXXXX",
"XXXXXXXXXXXXXXXXXXXXXXXXXXXXXXXXXXXXXXXXXXXXXXXXXXXXXXXXXXXXXXXXXXXXXXXXXXXXXXXX",
"XXXXXXXXXXXXXXXXXXXXXXXXXXXXXXXXXXXXXXXXXXXXXXXXXXXXXXXXXXXXXXXXXXXXXXXXXXXXXXXX",
"XXXXXXXXXXXXXXXXXXXXXXXXXXXXXXXXXXXXXXXXXXXXXXXXXXXXXXXXXXXXXXXXXXXXXXXXXXXXXXXX",
"XXXXXXXXXXXXXXXXXXXXXXXXXXXXXXXXXXXXXXXXXXXXXXXXXXXXXXXXXXXXXXXXXXXXXXXXXXXXXXXX",
"XXXXXXXXXXXXXXXXXXXXXXXXXXXXXXXXXXXXXXXXXXXXXXXXXXXXXXXXXXXXXXXXXXXXXXXXXXXXXXXX",
"XXXXXXXXXXXXXXXXXXXXXXXXXXXXXXXXXXXXXXXXXXXXXXXXXXXXXXXXXXXXXXXXXXXXXXXXXXXXXXXX",
"XXXXXXXXXXXXXXXXXXXXXXXXXXXXXXXXXXXXXXXXXXXXXXXXXXXXXXXXXXXXXXXXXXXXXXXXXXXXXXXX",
"XXXXXXXXXXXXXXXXXXXXXXXXXXXXXXXXXXXXXXXXXXXXXXXXXXXXXXXXXXXXXXXXXXXXXXXXXXXXXXXX",
"XXXXXXXXXXXXXXXXXXXXXXXXXXXXXXXXXXXXXXXXXXXXXXXXXXXXXXXXXXXXXXXXXXXXXXXXXXXXXXXX",
"XXXXXXXXXXXXXXXXXXXXXXXXXXXXXXXXXXXXXXXXXXXXXXXXXXXXXXXXXXXXXXXXXXXXXXXXXXXXXXXX",
"ooooooooooooooooooooooooooooooXXXXXXXXXXooooooooooooooooooooXXXXXXXXXX..........",
"ooooooooooooooooooooooooooooooXXXXXXXXXXooooooooooooooooooooXXXXXXXXXX..........",
"ooooooooooooooooooooooooooooooXXXXXXXXXXooooooooooooooooooooXXXXXXXXXX..........",
"ooooooooooooooooooooooooooooooXXXXXXXXXXooooooooooooooooooooXXXXXXXXXX..........",
"ooooooooooooooooooooooooooooooXXXXXXXXXXooooooooooooooooooooXXXXXXXXXX..........",
"ooooooooooooooooooooooooooooooXXXXXXXXXXooooooooooooooooooooXXXXXXXXXX..........",
"ooooooooooooooooooooooooooooooXXXXXXXXXXooooooooooooooooooooXXXXXXXXXX..........",
"ooooooooooooooooooooooooooooooXXXXXXXXXXooooooooooooooooooooXXXXXXXXXX..........",
"ooooooooooooooooooooooooooooooXXXXXXXXXXooooooooooooooooooooXXXXXXXXXX..........",
"ooooooooooooooooooooooooooooooXXXXXXXXXXooooooooooooooooooooXXXXXXXXXX..........",
"OOOOOOOOOO++++++++++++++++++++..........oooooooooooooooooooo++++++++++OOOOOOOOOO",
"OOOOOOOOOO++++++++++++++++++++..........oooooooooooooooooooo++++++++++OOOOOOOOOO",
"OOOOOOOOOO++++++++++++++++++++..........oooooooooooooooooooo++++++++++OOOOOOOOOO",
"OOOOOOOOOO++++++++++++++++++++..........oooooooooooooooooooo++++++++++OOOOOOOOOO",
"OOOOOOOOOO++++++++++++++++++++..........oooooooooooooooooooo++++++++++OOOOOOOOOO",
"OOOOOOOOOO++++++++++++++++++++..........oooooooooooooooooooo++++++++++OOOOOOOOOO",
"OOOOOOOOOO++++++++++++++++++++..........oooooooooooooooooooo++++++++++OOOOOOOOOO",
"OOOOOOOOOO++++++++++++++++++++..........oooooooooooooooooooo++++++++++OOOOOOOOOO",
"OOOOOOOOOO++++++++++++++++++++..........oooooooooooooooooooo++++++++++OOOOOOOOOO",
"OOOOOOOOOO++++++++++++++++++++..........oooooooooooooooooooo++++++++++OOOOOOOOOO",
"OOOOOOOOOOOOOOOOOOOOOOOOOOOOOO++++++++++ooooooooooOOOOOOOOOOOOOOOOOOOOOOOOOOOOOO",
"OOOOOOOOOOOOOOOOOOOOOOOOOOOOOO++++++++++ooooooooooOOOOOOOOOOOOOOOOOOOOOOOOOOOOOO",
"OOOOOOOOOOOOOOOOOOOOOOOOOOOOOO++++++++++ooooooooooOOOOOOOOOOOOOOOOOOOOOOOOOOOOOO",
"OOOOOOOOOOOOOOOOOOOOOOOOOOOOOO++++++++++ooooooooooOOOOOOOOOOOOOOOOOOOOOOOOOOOOOO",
"OOOOOOOOOOOOOOOOOOOOOOOOOOOOOO++++++++++ooooooooooOOOOOOOOOOOOOOOOOOOOOOOOOOOOOO",
"OOOOOOOOOOOOOOOOOOOOOOOOOOOOOO++++++++++ooooooooooOOOOOOOOOOOOOOOOOOOOOOOOOOOOOO",
"OOOOOOOOOOOOOOOOOOOOOOOOOOOOOO++++++++++ooooooooooOOOOOOOOOOOOOOOOOOOOOOOOOOOOOO",
"OOOOOOOOOOOOOOOOOOOOOOOOOOOOOO++++++++++ooooooooooOOOOOOOOOOOOOOOOOOOOOOOOOOOOOO",
"OOOOOOOOOOOOOOOOOOOOOOOOOOOOOO++++++++++ooooooooooOOOOOOOOOOOOOOOOOOOOOOOOOOOOOO",
"OOOOOOOOOOOOOOOOOOOOOOOOOOOOOO++++++++++ooooooooooOOOOOOOOOOOOOOOOOOOOOOOOOOOOOO"
};
